<mxfile host="Electron" modified="2023-04-06T14:03:55.779Z" agent="Mozilla/5.0 (Macintosh; Intel Mac OS X 10_14_6) AppleWebKit/537.36 (KHTML, like Gecko) draw.io/21.1.2 Chrome/106.0.5249.199 Electron/21.4.3 Safari/537.36" etag="3a5cOnA6hdwT1Pgoef6Q" version="21.1.2" type="device" pages="4">
  <diagram id="C5RBs43oDa-KdzZeNtuy" name="gliph.R">
    <mxGraphModel dx="1195" dy="718" grid="0" gridSize="10" guides="1" tooltips="1" connect="1" arrows="1" fold="1" page="1" pageScale="1" pageWidth="1169" pageHeight="827" background="#1C1C1C" math="0" shadow="0">
      <root>
        <mxCell id="WIyWlLk6GJQsqaUBKTNV-0" />
        <mxCell id="WIyWlLk6GJQsqaUBKTNV-1" parent="WIyWlLk6GJQsqaUBKTNV-0" />
        <mxCell id="44xcnMNpLmmJY_EVTT2l-0" value="&lt;font style=&quot;font-size: 20px;&quot;&gt;gliph.R&lt;/font&gt;" style="swimlane;fontStyle=0;childLayout=stackLayout;horizontal=1;startSize=30;horizontalStack=0;resizeParent=1;resizeParentMax=0;resizeLast=0;collapsible=1;marginBottom=0;whiteSpace=wrap;html=1;swimlaneFillColor=none;fillStyle=auto;fillColor=#666666;shadow=0;" parent="WIyWlLk6GJQsqaUBKTNV-1" vertex="1">
          <mxGeometry x="543.5" y="75" width="140" height="90" as="geometry">
            <mxRectangle x="99" y="41" width="68" height="30" as="alternateBounds" />
          </mxGeometry>
        </mxCell>
        <mxCell id="44xcnMNpLmmJY_EVTT2l-1" value="exec gliph pipeline" style="text;strokeColor=none;fillColor=#666666;align=left;verticalAlign=middle;spacingLeft=4;spacingRight=4;overflow=hidden;points=[[0,0.5],[1,0.5]];portConstraint=eastwest;rotatable=0;whiteSpace=wrap;html=1;shadow=0;" parent="44xcnMNpLmmJY_EVTT2l-0" vertex="1">
          <mxGeometry y="30" width="140" height="30" as="geometry" />
        </mxCell>
        <mxCell id="44xcnMNpLmmJY_EVTT2l-16" value="return clusters &amp;amp; edges" style="text;strokeColor=none;fillColor=#666666;align=left;verticalAlign=middle;spacingLeft=4;spacingRight=4;overflow=hidden;points=[[0,0.5],[1,0.5]];portConstraint=eastwest;rotatable=0;whiteSpace=wrap;html=1;shadow=0;" parent="44xcnMNpLmmJY_EVTT2l-0" vertex="1">
          <mxGeometry y="60" width="140" height="30" as="geometry" />
        </mxCell>
        <mxCell id="44xcnMNpLmmJY_EVTT2l-57" value="abstract exec flow" style="shape=table;startSize=37;container=1;collapsible=0;childLayout=tableLayout;fontSize=16;fillColor=#666666;" parent="WIyWlLk6GJQsqaUBKTNV-1" vertex="1">
          <mxGeometry x="100" y="227" width="313" height="419.34057971014545" as="geometry" />
        </mxCell>
        <mxCell id="44xcnMNpLmmJY_EVTT2l-58" value="" style="shape=tableRow;horizontal=0;startSize=0;swimlaneHead=0;swimlaneBody=0;strokeColor=inherit;top=0;left=0;bottom=0;right=0;collapsible=0;dropTarget=0;fillColor=none;points=[[0,0.5],[1,0.5]];portConstraint=eastwest;fontSize=16;" parent="44xcnMNpLmmJY_EVTT2l-57" vertex="1">
          <mxGeometry y="37" width="313" height="41" as="geometry" />
        </mxCell>
        <mxCell id="44xcnMNpLmmJY_EVTT2l-59" value="get_control()&lt;br&gt;&lt;font style=&quot;font-size: 8px;&quot;&gt;util_v1_v2.R&lt;/font&gt;" style="shape=partialRectangle;html=1;whiteSpace=wrap;connectable=0;strokeColor=inherit;overflow=hidden;fillColor=#666666;top=0;left=0;bottom=0;right=0;pointerEvents=1;fontSize=12;" parent="44xcnMNpLmmJY_EVTT2l-58" vertex="1">
          <mxGeometry width="160" height="41" as="geometry">
            <mxRectangle width="160" height="41" as="alternateBounds" />
          </mxGeometry>
        </mxCell>
        <mxCell id="44xcnMNpLmmJY_EVTT2l-60" value="check control input&lt;br&gt;refactor into input_checks" style="shape=partialRectangle;html=1;whiteSpace=wrap;connectable=0;strokeColor=inherit;overflow=hidden;fillColor=#666666;top=0;left=0;bottom=0;right=0;pointerEvents=1;fontSize=12;" parent="44xcnMNpLmmJY_EVTT2l-58" vertex="1">
          <mxGeometry x="160" width="153" height="41" as="geometry">
            <mxRectangle width="153" height="41" as="alternateBounds" />
          </mxGeometry>
        </mxCell>
        <mxCell id="44xcnMNpLmmJY_EVTT2l-61" value="" style="shape=tableRow;horizontal=0;startSize=0;swimlaneHead=0;swimlaneBody=0;strokeColor=inherit;top=0;left=0;bottom=0;right=0;collapsible=0;dropTarget=0;fillColor=none;points=[[0,0.5],[1,0.5]];portConstraint=eastwest;fontSize=16;" parent="44xcnMNpLmmJY_EVTT2l-57" vertex="1">
          <mxGeometry y="78" width="313" height="40" as="geometry" />
        </mxCell>
        <mxCell id="44xcnMNpLmmJY_EVTT2l-62" value="input_check()&lt;br&gt;&lt;font style=&quot;font-size: 8px;&quot;&gt;input_check.R&lt;/font&gt;" style="shape=partialRectangle;html=1;whiteSpace=wrap;connectable=0;strokeColor=inherit;overflow=hidden;fillColor=#666666;top=0;left=0;bottom=0;right=0;pointerEvents=1;fontSize=12;" parent="44xcnMNpLmmJY_EVTT2l-61" vertex="1">
          <mxGeometry width="160" height="40" as="geometry">
            <mxRectangle width="160" height="40" as="alternateBounds" />
          </mxGeometry>
        </mxCell>
        <mxCell id="44xcnMNpLmmJY_EVTT2l-63" value="check input parameters" style="shape=partialRectangle;html=1;whiteSpace=wrap;connectable=0;strokeColor=inherit;overflow=hidden;fillColor=#666666;top=0;left=0;bottom=0;right=0;pointerEvents=1;fontSize=12;" parent="44xcnMNpLmmJY_EVTT2l-61" vertex="1">
          <mxGeometry x="160" width="153" height="40" as="geometry">
            <mxRectangle width="153" height="40" as="alternateBounds" />
          </mxGeometry>
        </mxCell>
        <mxCell id="44xcnMNpLmmJY_EVTT2l-64" value="" style="shape=tableRow;horizontal=0;startSize=0;swimlaneHead=0;swimlaneBody=0;strokeColor=inherit;top=0;left=0;bottom=0;right=0;collapsible=0;dropTarget=0;fillColor=none;points=[[0,0.5],[1,0.5]];portConstraint=eastwest;fontSize=16;" parent="44xcnMNpLmmJY_EVTT2l-57" vertex="1">
          <mxGeometry y="118" width="313" height="41" as="geometry" />
        </mxCell>
        <mxCell id="44xcnMNpLmmJY_EVTT2l-65" value="get_chains()&lt;br&gt;&lt;font style=&quot;font-size: 8px;&quot;&gt;util_v1_v2.R&lt;/font&gt;" style="shape=partialRectangle;html=1;whiteSpace=wrap;connectable=0;strokeColor=inherit;overflow=hidden;fillColor=#666666;top=0;left=0;bottom=0;right=0;pointerEvents=1;fontSize=12;" parent="44xcnMNpLmmJY_EVTT2l-64" vertex="1">
          <mxGeometry width="160" height="41" as="geometry">
            <mxRectangle width="160" height="41" as="alternateBounds" />
          </mxGeometry>
        </mxCell>
        <mxCell id="44xcnMNpLmmJY_EVTT2l-66" value="get cdr3a/b columns" style="shape=partialRectangle;html=1;whiteSpace=wrap;connectable=0;strokeColor=inherit;overflow=hidden;fillColor=#666666;top=0;left=0;bottom=0;right=0;pointerEvents=1;fontSize=12;" parent="44xcnMNpLmmJY_EVTT2l-64" vertex="1">
          <mxGeometry x="160" width="153" height="41" as="geometry">
            <mxRectangle width="153" height="41" as="alternateBounds" />
          </mxGeometry>
        </mxCell>
        <mxCell id="44xcnMNpLmmJY_EVTT2l-67" value="" style="shape=tableRow;horizontal=0;startSize=0;swimlaneHead=0;swimlaneBody=0;strokeColor=inherit;top=0;left=0;bottom=0;right=0;collapsible=0;dropTarget=0;fillColor=none;points=[[0,0.5],[1,0.5]];portConstraint=eastwest;fontSize=16;" parent="44xcnMNpLmmJY_EVTT2l-57" vertex="1">
          <mxGeometry y="159" width="313" height="41" as="geometry" />
        </mxCell>
        <mxCell id="44xcnMNpLmmJY_EVTT2l-68" value="&lt;span style=&quot;font-style: normal;&quot;&gt;add id&lt;/span&gt;" style="shape=partialRectangle;html=1;whiteSpace=wrap;connectable=0;strokeColor=inherit;overflow=hidden;fillColor=#666666;top=0;left=0;bottom=0;right=0;pointerEvents=1;fontSize=12;fontStyle=2" parent="44xcnMNpLmmJY_EVTT2l-67" vertex="1">
          <mxGeometry width="160" height="41" as="geometry">
            <mxRectangle width="160" height="41" as="alternateBounds" />
          </mxGeometry>
        </mxCell>
        <mxCell id="44xcnMNpLmmJY_EVTT2l-69" value="index tcr sample" style="shape=partialRectangle;html=1;whiteSpace=wrap;connectable=0;strokeColor=inherit;overflow=hidden;fillColor=#666666;top=0;left=0;bottom=0;right=0;pointerEvents=1;fontSize=12;" parent="44xcnMNpLmmJY_EVTT2l-67" vertex="1">
          <mxGeometry x="160" width="153" height="41" as="geometry">
            <mxRectangle width="153" height="41" as="alternateBounds" />
          </mxGeometry>
        </mxCell>
        <mxCell id="44xcnMNpLmmJY_EVTT2l-70" value="" style="shape=tableRow;horizontal=0;startSize=0;swimlaneHead=0;swimlaneBody=0;strokeColor=inherit;top=0;left=0;bottom=0;right=0;collapsible=0;dropTarget=0;fillColor=none;points=[[0,0.5],[1,0.5]];portConstraint=eastwest;fontSize=16;" parent="44xcnMNpLmmJY_EVTT2l-57" vertex="1">
          <mxGeometry y="200" width="313" height="40" as="geometry" />
        </mxCell>
        <mxCell id="44xcnMNpLmmJY_EVTT2l-71" value="&lt;span&gt;trim flanks&lt;/span&gt;" style="shape=partialRectangle;html=1;whiteSpace=wrap;connectable=0;strokeColor=inherit;overflow=hidden;fillColor=#666666;top=0;left=0;bottom=0;right=0;pointerEvents=1;fontSize=12;fontStyle=0" parent="44xcnMNpLmmJY_EVTT2l-70" vertex="1">
          <mxGeometry width="160" height="40" as="geometry">
            <mxRectangle width="160" height="40" as="alternateBounds" />
          </mxGeometry>
        </mxCell>
        <mxCell id="44xcnMNpLmmJY_EVTT2l-72" value="cut off aa start/end" style="shape=partialRectangle;html=1;whiteSpace=wrap;connectable=0;strokeColor=inherit;overflow=hidden;fillColor=#666666;top=0;left=0;bottom=0;right=0;pointerEvents=1;fontSize=12;" parent="44xcnMNpLmmJY_EVTT2l-70" vertex="1">
          <mxGeometry x="160" width="153" height="40" as="geometry">
            <mxRectangle width="153" height="40" as="alternateBounds" />
          </mxGeometry>
        </mxCell>
        <mxCell id="44xcnMNpLmmJY_EVTT2l-73" value="" style="shape=tableRow;horizontal=0;startSize=0;swimlaneHead=0;swimlaneBody=0;strokeColor=inherit;top=0;left=0;bottom=0;right=0;collapsible=0;dropTarget=0;fillColor=none;points=[[0,0.5],[1,0.5]];portConstraint=eastwest;fontSize=16;" parent="44xcnMNpLmmJY_EVTT2l-57" vertex="1">
          <mxGeometry y="240" width="313" height="50" as="geometry" />
        </mxCell>
        <mxCell id="44xcnMNpLmmJY_EVTT2l-74" value="create edges" style="shape=partialRectangle;html=1;whiteSpace=wrap;connectable=0;strokeColor=inherit;overflow=hidden;fillColor=#666666;top=0;left=0;bottom=0;right=0;pointerEvents=1;fontSize=12;fontStyle=0" parent="44xcnMNpLmmJY_EVTT2l-73" vertex="1">
          <mxGeometry width="160" height="50" as="geometry">
            <mxRectangle width="160" height="50" as="alternateBounds" />
          </mxGeometry>
        </mxCell>
        <mxCell id="44xcnMNpLmmJY_EVTT2l-75" value="prepare unique (v1, v2) or &lt;br&gt;all edges (v3) for clustering input" style="shape=partialRectangle;html=1;whiteSpace=wrap;connectable=0;strokeColor=inherit;overflow=hidden;fillColor=#666666;top=0;left=0;bottom=0;right=0;pointerEvents=1;fontSize=12;" parent="44xcnMNpLmmJY_EVTT2l-73" vertex="1">
          <mxGeometry x="160" width="153" height="50" as="geometry">
            <mxRectangle width="153" height="50" as="alternateBounds" />
          </mxGeometry>
        </mxCell>
        <mxCell id="44xcnMNpLmmJY_EVTT2l-76" value="" style="shape=tableRow;horizontal=0;startSize=0;swimlaneHead=0;swimlaneBody=0;strokeColor=inherit;top=0;left=0;bottom=0;right=0;collapsible=0;dropTarget=0;fillColor=none;points=[[0,0.5],[1,0.5]];portConstraint=eastwest;fontSize=16;" parent="44xcnMNpLmmJY_EVTT2l-57" vertex="1">
          <mxGeometry y="290" width="313" height="47" as="geometry" />
        </mxCell>
        <mxCell id="44xcnMNpLmmJY_EVTT2l-77" value="get_chain_run_v1/2()&lt;br style=&quot;font-size: 11px;&quot;&gt;&lt;span style=&quot;font-size: 8px;&quot;&gt;util_v1.R (v1)&lt;span style=&quot;&quot;&gt;	&lt;/span&gt;&amp;nbsp; &amp;nbsp; ||&lt;span style=&quot;&quot;&gt;	&lt;span style=&quot;white-space: pre;&quot;&gt;	&lt;/span&gt;&lt;/span&gt;util_v2.R (v2+v3)&lt;/span&gt;" style="shape=partialRectangle;html=1;whiteSpace=wrap;connectable=0;strokeColor=inherit;overflow=hidden;fillColor=#666666;top=0;left=0;bottom=0;right=0;pointerEvents=1;fontSize=12;" parent="44xcnMNpLmmJY_EVTT2l-76" vertex="1">
          <mxGeometry width="160" height="47" as="geometry">
            <mxRectangle width="160" height="47" as="alternateBounds" />
          </mxGeometry>
        </mxCell>
        <mxCell id="44xcnMNpLmmJY_EVTT2l-78" value="local &amp;amp; global clustering" style="shape=partialRectangle;html=1;whiteSpace=wrap;connectable=0;strokeColor=inherit;overflow=hidden;fillColor=#666666;top=0;left=0;bottom=0;right=0;pointerEvents=1;fontSize=12;" parent="44xcnMNpLmmJY_EVTT2l-76" vertex="1">
          <mxGeometry x="160" width="153" height="47" as="geometry">
            <mxRectangle width="153" height="47" as="alternateBounds" />
          </mxGeometry>
        </mxCell>
        <mxCell id="44xcnMNpLmmJY_EVTT2l-79" value="" style="shape=tableRow;horizontal=0;startSize=0;swimlaneHead=0;swimlaneBody=0;strokeColor=inherit;top=0;left=0;bottom=0;right=0;collapsible=0;dropTarget=0;fillColor=none;points=[[0,0.5],[1,0.5]];portConstraint=eastwest;fontSize=16;" parent="44xcnMNpLmmJY_EVTT2l-57" vertex="1">
          <mxGeometry y="337" width="313" height="41" as="geometry" />
        </mxCell>
        <mxCell id="44xcnMNpLmmJY_EVTT2l-80" value="get_edges()&lt;br&gt;&lt;font style=&quot;font-size: 8px;&quot;&gt;util_v1_v2.R&lt;/font&gt;" style="shape=partialRectangle;html=1;whiteSpace=wrap;connectable=0;strokeColor=inherit;overflow=hidden;fillColor=#666666;top=0;left=0;bottom=0;right=0;pointerEvents=1;fontSize=12;" parent="44xcnMNpLmmJY_EVTT2l-79" vertex="1">
          <mxGeometry width="160" height="41" as="geometry">
            <mxRectangle width="160" height="41" as="alternateBounds" />
          </mxGeometry>
        </mxCell>
        <mxCell id="44xcnMNpLmmJY_EVTT2l-81" value="edges between seqs" style="shape=partialRectangle;html=1;whiteSpace=wrap;connectable=0;strokeColor=inherit;overflow=hidden;fillColor=#666666;top=0;left=0;bottom=0;right=0;pointerEvents=1;fontSize=12;" parent="44xcnMNpLmmJY_EVTT2l-79" vertex="1">
          <mxGeometry x="160" width="153" height="41" as="geometry">
            <mxRectangle width="153" height="41" as="alternateBounds" />
          </mxGeometry>
        </mxCell>
        <mxCell id="44xcnMNpLmmJY_EVTT2l-82" value="" style="shape=tableRow;horizontal=0;startSize=0;swimlaneHead=0;swimlaneBody=0;strokeColor=inherit;top=0;left=0;bottom=0;right=0;collapsible=0;dropTarget=0;fillColor=none;points=[[0,0.5],[1,0.5]];portConstraint=eastwest;fontSize=16;" parent="44xcnMNpLmmJY_EVTT2l-57" vertex="1">
          <mxGeometry y="378" width="313" height="41" as="geometry" />
        </mxCell>
        <mxCell id="44xcnMNpLmmJY_EVTT2l-83" value="return" style="shape=partialRectangle;html=1;whiteSpace=wrap;connectable=0;strokeColor=inherit;overflow=hidden;fillColor=#666666;top=0;left=0;bottom=0;right=0;pointerEvents=1;fontSize=12;" parent="44xcnMNpLmmJY_EVTT2l-82" vertex="1">
          <mxGeometry width="160" height="41" as="geometry">
            <mxRectangle width="160" height="41" as="alternateBounds" />
          </mxGeometry>
        </mxCell>
        <mxCell id="44xcnMNpLmmJY_EVTT2l-84" value="clusters, edges, indexed data_sample &amp;amp; parameters" style="shape=partialRectangle;html=1;whiteSpace=wrap;connectable=0;strokeColor=inherit;overflow=hidden;fillColor=#666666;top=0;left=0;bottom=0;right=0;pointerEvents=1;fontSize=12;" parent="44xcnMNpLmmJY_EVTT2l-82" vertex="1">
          <mxGeometry x="160" width="153" height="41" as="geometry">
            <mxRectangle width="153" height="41" as="alternateBounds" />
          </mxGeometry>
        </mxCell>
        <mxCell id="wXSr76FdmFWwSOD84wt1-0" value="input " style="shape=table;startSize=43;container=1;collapsible=0;childLayout=tableLayout;fontSize=16;verticalAlign=middle;fillColor=#666666;strokeWidth=1;swimlaneLine=1;shadow=0;rounded=0;perimeterSpacing=1;" vertex="1" parent="WIyWlLk6GJQsqaUBKTNV-1">
          <mxGeometry x="464" y="227" width="299" height="509.8478260869565" as="geometry" />
        </mxCell>
        <mxCell id="wXSr76FdmFWwSOD84wt1-1" value="" style="shape=tableRow;horizontal=0;startSize=0;swimlaneHead=0;swimlaneBody=0;strokeColor=inherit;top=0;left=0;bottom=0;right=0;collapsible=0;dropTarget=0;fillColor=none;points=[[0,0.5],[1,0.5]];portConstraint=eastwest;fontSize=16;" vertex="1" parent="wXSr76FdmFWwSOD84wt1-0">
          <mxGeometry y="43" width="299" height="32" as="geometry" />
        </mxCell>
        <mxCell id="wXSr76FdmFWwSOD84wt1-2" value="data_sample" style="shape=partialRectangle;html=1;whiteSpace=wrap;connectable=0;strokeColor=inherit;overflow=hidden;fillColor=#666666;top=0;left=0;bottom=0;right=0;pointerEvents=1;fontSize=12;" vertex="1" parent="wXSr76FdmFWwSOD84wt1-1">
          <mxGeometry width="150" height="32" as="geometry">
            <mxRectangle width="150" height="32" as="alternateBounds" />
          </mxGeometry>
        </mxCell>
        <mxCell id="wXSr76FdmFWwSOD84wt1-3" value="tcr sample" style="shape=partialRectangle;html=1;whiteSpace=wrap;connectable=0;strokeColor=inherit;overflow=hidden;fillColor=#666666;top=0;left=0;bottom=0;right=0;pointerEvents=1;fontSize=12;" vertex="1" parent="wXSr76FdmFWwSOD84wt1-1">
          <mxGeometry x="150" width="149" height="32" as="geometry">
            <mxRectangle width="149" height="32" as="alternateBounds" />
          </mxGeometry>
        </mxCell>
        <mxCell id="wXSr76FdmFWwSOD84wt1-4" value="" style="shape=tableRow;horizontal=0;startSize=0;swimlaneHead=0;swimlaneBody=0;strokeColor=inherit;top=0;left=0;bottom=0;right=0;collapsible=0;dropTarget=0;fillColor=none;points=[[0,0.5],[1,0.5]];portConstraint=eastwest;fontSize=16;" vertex="1" parent="wXSr76FdmFWwSOD84wt1-0">
          <mxGeometry y="75" width="299" height="36" as="geometry" />
        </mxCell>
        <mxCell id="wXSr76FdmFWwSOD84wt1-5" value="data_ref" style="shape=partialRectangle;html=1;whiteSpace=wrap;connectable=0;strokeColor=inherit;overflow=hidden;fillColor=#666666;top=0;left=0;bottom=0;right=0;pointerEvents=1;fontSize=12;" vertex="1" parent="wXSr76FdmFWwSOD84wt1-4">
          <mxGeometry width="150" height="36" as="geometry">
            <mxRectangle width="150" height="36" as="alternateBounds" />
          </mxGeometry>
        </mxCell>
        <mxCell id="wXSr76FdmFWwSOD84wt1-6" value="reference database" style="shape=partialRectangle;html=1;whiteSpace=wrap;connectable=0;strokeColor=inherit;overflow=hidden;fillColor=#666666;top=0;left=0;bottom=0;right=0;pointerEvents=1;fontSize=12;" vertex="1" parent="wXSr76FdmFWwSOD84wt1-4">
          <mxGeometry x="150" width="149" height="36" as="geometry">
            <mxRectangle width="149" height="36" as="alternateBounds" />
          </mxGeometry>
        </mxCell>
        <mxCell id="wXSr76FdmFWwSOD84wt1-7" value="" style="shape=tableRow;horizontal=0;startSize=0;swimlaneHead=0;swimlaneBody=0;strokeColor=inherit;top=0;left=0;bottom=0;right=0;collapsible=0;dropTarget=0;fillColor=none;points=[[0,0.5],[1,0.5]];portConstraint=eastwest;fontSize=16;" vertex="1" parent="wXSr76FdmFWwSOD84wt1-0">
          <mxGeometry y="111" width="299" height="32" as="geometry" />
        </mxCell>
        <mxCell id="wXSr76FdmFWwSOD84wt1-8" value="version = 2" style="shape=partialRectangle;html=1;whiteSpace=wrap;connectable=0;strokeColor=inherit;overflow=hidden;fillColor=#666666;top=0;left=0;bottom=0;right=0;pointerEvents=1;fontSize=12;" vertex="1" parent="wXSr76FdmFWwSOD84wt1-7">
          <mxGeometry width="150" height="32" as="geometry">
            <mxRectangle width="150" height="32" as="alternateBounds" />
          </mxGeometry>
        </mxCell>
        <mxCell id="wXSr76FdmFWwSOD84wt1-9" value="gliph version" style="shape=partialRectangle;html=1;whiteSpace=wrap;connectable=0;strokeColor=inherit;overflow=hidden;fillColor=#666666;top=0;left=0;bottom=0;right=0;pointerEvents=1;fontSize=12;" vertex="1" parent="wXSr76FdmFWwSOD84wt1-7">
          <mxGeometry x="150" width="149" height="32" as="geometry">
            <mxRectangle width="149" height="32" as="alternateBounds" />
          </mxGeometry>
        </mxCell>
        <mxCell id="wXSr76FdmFWwSOD84wt1-10" value="" style="shape=tableRow;horizontal=0;startSize=0;swimlaneHead=0;swimlaneBody=0;strokeColor=inherit;top=0;left=0;bottom=0;right=0;collapsible=0;dropTarget=0;fillColor=none;points=[[0,0.5],[1,0.5]];portConstraint=eastwest;fontSize=16;" vertex="1" parent="wXSr76FdmFWwSOD84wt1-0">
          <mxGeometry y="143" width="299" height="31" as="geometry" />
        </mxCell>
        <mxCell id="wXSr76FdmFWwSOD84wt1-11" value="ks = c(2, 3, 4)" style="shape=partialRectangle;html=1;whiteSpace=wrap;connectable=0;strokeColor=inherit;overflow=hidden;fillColor=#666666;top=0;left=0;bottom=0;right=0;pointerEvents=1;fontSize=12;" vertex="1" parent="wXSr76FdmFWwSOD84wt1-10">
          <mxGeometry width="150" height="31" as="geometry">
            <mxRectangle width="150" height="31" as="alternateBounds" />
          </mxGeometry>
        </mxCell>
        <mxCell id="wXSr76FdmFWwSOD84wt1-12" value="motif lengths" style="shape=partialRectangle;html=1;whiteSpace=wrap;connectable=0;strokeColor=inherit;overflow=hidden;fillColor=#666666;top=0;left=0;bottom=0;right=0;pointerEvents=1;fontSize=12;" vertex="1" parent="wXSr76FdmFWwSOD84wt1-10">
          <mxGeometry x="150" width="149" height="31" as="geometry">
            <mxRectangle width="149" height="31" as="alternateBounds" />
          </mxGeometry>
        </mxCell>
        <mxCell id="wXSr76FdmFWwSOD84wt1-13" value="" style="shape=tableRow;horizontal=0;startSize=0;swimlaneHead=0;swimlaneBody=0;strokeColor=inherit;top=0;left=0;bottom=0;right=0;collapsible=0;dropTarget=0;fillColor=none;points=[[0,0.5],[1,0.5]];portConstraint=eastwest;fontSize=16;" vertex="1" parent="wXSr76FdmFWwSOD84wt1-0">
          <mxGeometry y="174" width="299" height="30" as="geometry" />
        </mxCell>
        <mxCell id="wXSr76FdmFWwSOD84wt1-14" value="cores = 1" style="shape=partialRectangle;html=1;whiteSpace=wrap;connectable=0;strokeColor=inherit;overflow=hidden;fillColor=#666666;top=0;left=0;bottom=0;right=0;pointerEvents=1;fontSize=12;" vertex="1" parent="wXSr76FdmFWwSOD84wt1-13">
          <mxGeometry width="150" height="30" as="geometry">
            <mxRectangle width="150" height="30" as="alternateBounds" />
          </mxGeometry>
        </mxCell>
        <mxCell id="wXSr76FdmFWwSOD84wt1-15" value="cpu cores" style="shape=partialRectangle;html=1;whiteSpace=wrap;connectable=0;strokeColor=inherit;overflow=hidden;fillColor=#666666;top=0;left=0;bottom=0;right=0;pointerEvents=1;fontSize=12;" vertex="1" parent="wXSr76FdmFWwSOD84wt1-13">
          <mxGeometry x="150" width="149" height="30" as="geometry">
            <mxRectangle width="149" height="30" as="alternateBounds" />
          </mxGeometry>
        </mxCell>
        <mxCell id="wXSr76FdmFWwSOD84wt1-16" value="" style="shape=tableRow;horizontal=0;startSize=0;swimlaneHead=0;swimlaneBody=0;strokeColor=inherit;top=0;left=0;bottom=0;right=0;collapsible=0;dropTarget=0;fillColor=none;points=[[0,0.5],[1,0.5]];portConstraint=eastwest;fontSize=16;" vertex="1" parent="wXSr76FdmFWwSOD84wt1-0">
          <mxGeometry y="204" width="299" height="31" as="geometry" />
        </mxCell>
        <mxCell id="wXSr76FdmFWwSOD84wt1-17" value="( B = 1000 )" style="shape=partialRectangle;html=1;whiteSpace=wrap;connectable=0;strokeColor=inherit;overflow=hidden;fillColor=#666666;top=0;left=0;bottom=0;right=0;pointerEvents=1;fontSize=12;" vertex="1" parent="wXSr76FdmFWwSOD84wt1-16">
          <mxGeometry width="150" height="31" as="geometry">
            <mxRectangle width="150" height="31" as="alternateBounds" />
          </mxGeometry>
        </mxCell>
        <mxCell id="wXSr76FdmFWwSOD84wt1-18" value="simulation depth" style="shape=partialRectangle;html=1;whiteSpace=wrap;connectable=0;strokeColor=inherit;overflow=hidden;fillColor=#666666;top=0;left=0;bottom=0;right=0;pointerEvents=1;fontSize=12;" vertex="1" parent="wXSr76FdmFWwSOD84wt1-16">
          <mxGeometry x="150" width="149" height="31" as="geometry">
            <mxRectangle width="149" height="31" as="alternateBounds" />
          </mxGeometry>
        </mxCell>
        <mxCell id="wXSr76FdmFWwSOD84wt1-19" value="" style="shape=tableRow;horizontal=0;startSize=0;swimlaneHead=0;swimlaneBody=0;strokeColor=inherit;top=0;left=0;bottom=0;right=0;collapsible=0;dropTarget=0;fillColor=none;points=[[0,0.5],[1,0.5]];portConstraint=eastwest;fontSize=16;" vertex="1" parent="wXSr76FdmFWwSOD84wt1-0">
          <mxGeometry y="235" width="299" height="29" as="geometry" />
        </mxCell>
        <mxCell id="wXSr76FdmFWwSOD84wt1-20" value="( global_max_dist = 1)" style="shape=partialRectangle;html=1;whiteSpace=wrap;connectable=0;strokeColor=inherit;overflow=hidden;fillColor=#666666;top=0;left=0;bottom=0;right=0;pointerEvents=1;fontSize=12;" vertex="1" parent="wXSr76FdmFWwSOD84wt1-19">
          <mxGeometry width="150" height="29" as="geometry">
            <mxRectangle width="150" height="29" as="alternateBounds" />
          </mxGeometry>
        </mxCell>
        <mxCell id="wXSr76FdmFWwSOD84wt1-21" value="max hamming distance" style="shape=partialRectangle;html=1;whiteSpace=wrap;connectable=0;strokeColor=inherit;overflow=hidden;fillColor=#666666;top=0;left=0;bottom=0;right=0;pointerEvents=1;fontSize=12;" vertex="1" parent="wXSr76FdmFWwSOD84wt1-19">
          <mxGeometry x="150" width="149" height="29" as="geometry">
            <mxRectangle width="149" height="29" as="alternateBounds" />
          </mxGeometry>
        </mxCell>
        <mxCell id="wXSr76FdmFWwSOD84wt1-22" value="" style="shape=tableRow;horizontal=0;startSize=0;swimlaneHead=0;swimlaneBody=0;strokeColor=inherit;top=0;left=0;bottom=0;right=0;collapsible=0;dropTarget=0;fillColor=none;points=[[0,0.5],[1,0.5]];portConstraint=eastwest;fontSize=16;" vertex="1" parent="wXSr76FdmFWwSOD84wt1-0">
          <mxGeometry y="264" width="299" height="51" as="geometry" />
        </mxCell>
        <mxCell id="wXSr76FdmFWwSOD84wt1-23" value="( local_min_p = 0.05 )" style="shape=partialRectangle;html=1;whiteSpace=wrap;connectable=0;strokeColor=inherit;overflow=hidden;fillColor=#666666;top=0;left=0;bottom=0;right=0;pointerEvents=1;fontSize=12;" vertex="1" parent="wXSr76FdmFWwSOD84wt1-22">
          <mxGeometry width="150" height="51" as="geometry">
            <mxRectangle width="150" height="51" as="alternateBounds" />
          </mxGeometry>
        </mxCell>
        <mxCell id="wXSr76FdmFWwSOD84wt1-24" value="max random prob cutoff&lt;br&gt;(&quot;local_max_p&quot;)&lt;br&gt;next local_max_fdr" style="shape=partialRectangle;html=1;whiteSpace=wrap;connectable=0;strokeColor=inherit;overflow=hidden;fillColor=#666666;top=0;left=0;bottom=0;right=0;pointerEvents=1;fontSize=12;" vertex="1" parent="wXSr76FdmFWwSOD84wt1-22">
          <mxGeometry x="150" width="149" height="51" as="geometry">
            <mxRectangle width="149" height="51" as="alternateBounds" />
          </mxGeometry>
        </mxCell>
        <mxCell id="wXSr76FdmFWwSOD84wt1-25" value="" style="shape=tableRow;horizontal=0;startSize=0;swimlaneHead=0;swimlaneBody=0;strokeColor=inherit;top=0;left=0;bottom=0;right=0;collapsible=0;dropTarget=0;fillColor=none;points=[[0,0.5],[1,0.5]];portConstraint=eastwest;fontSize=16;" vertex="1" parent="wXSr76FdmFWwSOD84wt1-0">
          <mxGeometry y="315" width="299" height="32" as="geometry" />
        </mxCell>
        <mxCell id="wXSr76FdmFWwSOD84wt1-26" value="( local_min_ove = 2 )" style="shape=partialRectangle;html=1;whiteSpace=wrap;connectable=0;strokeColor=inherit;overflow=hidden;fillColor=#666666;top=0;left=0;bottom=0;right=0;pointerEvents=1;fontSize=12;" vertex="1" parent="wXSr76FdmFWwSOD84wt1-25">
          <mxGeometry width="150" height="32" as="geometry">
            <mxRectangle width="150" height="32" as="alternateBounds" />
          </mxGeometry>
        </mxCell>
        <mxCell id="wXSr76FdmFWwSOD84wt1-27" value="min fold enrichment" style="shape=partialRectangle;html=1;whiteSpace=wrap;connectable=0;strokeColor=inherit;overflow=hidden;fillColor=#666666;top=0;left=0;bottom=0;right=0;pointerEvents=1;fontSize=12;" vertex="1" parent="wXSr76FdmFWwSOD84wt1-25">
          <mxGeometry x="150" width="149" height="32" as="geometry">
            <mxRectangle width="149" height="32" as="alternateBounds" />
          </mxGeometry>
        </mxCell>
        <mxCell id="wXSr76FdmFWwSOD84wt1-28" value="" style="shape=tableRow;horizontal=0;startSize=0;swimlaneHead=0;swimlaneBody=0;strokeColor=inherit;top=0;left=0;bottom=0;right=0;collapsible=0;dropTarget=0;fillColor=none;points=[[0,0.5],[1,0.5]];portConstraint=eastwest;fontSize=16;" vertex="1" parent="wXSr76FdmFWwSOD84wt1-0">
          <mxGeometry y="347" width="299" height="32" as="geometry" />
        </mxCell>
        <mxCell id="wXSr76FdmFWwSOD84wt1-29" value="( local_min_o = 3 )" style="shape=partialRectangle;html=1;whiteSpace=wrap;connectable=0;strokeColor=inherit;overflow=hidden;fillColor=#666666;top=0;left=0;bottom=0;right=0;pointerEvents=1;fontSize=12;" vertex="1" parent="wXSr76FdmFWwSOD84wt1-28">
          <mxGeometry width="150" height="32" as="geometry">
            <mxRectangle width="150" height="32" as="alternateBounds" />
          </mxGeometry>
        </mxCell>
        <mxCell id="wXSr76FdmFWwSOD84wt1-30" value="min motif observations" style="shape=partialRectangle;html=1;whiteSpace=wrap;connectable=0;strokeColor=inherit;overflow=hidden;fillColor=#666666;top=0;left=0;bottom=0;right=0;pointerEvents=1;fontSize=12;" vertex="1" parent="wXSr76FdmFWwSOD84wt1-28">
          <mxGeometry x="150" width="149" height="32" as="geometry">
            <mxRectangle width="149" height="32" as="alternateBounds" />
          </mxGeometry>
        </mxCell>
        <mxCell id="wXSr76FdmFWwSOD84wt1-31" value="" style="shape=tableRow;horizontal=0;startSize=0;swimlaneHead=0;swimlaneBody=0;strokeColor=inherit;top=0;left=0;bottom=0;right=0;collapsible=0;dropTarget=0;fillColor=none;points=[[0,0.5],[1,0.5]];portConstraint=eastwest;fontSize=16;" vertex="1" parent="wXSr76FdmFWwSOD84wt1-0">
          <mxGeometry y="379" width="299" height="35" as="geometry" />
        </mxCell>
        <mxCell id="wXSr76FdmFWwSOD84wt1-32" value="( trim_flanks = FALSE )" style="shape=partialRectangle;html=1;whiteSpace=wrap;connectable=0;strokeColor=inherit;overflow=hidden;fillColor=#666666;top=0;left=0;bottom=0;right=0;pointerEvents=1;fontSize=12;" vertex="1" parent="wXSr76FdmFWwSOD84wt1-31">
          <mxGeometry width="150" height="35" as="geometry">
            <mxRectangle width="150" height="35" as="alternateBounds" />
          </mxGeometry>
        </mxCell>
        <mxCell id="wXSr76FdmFWwSOD84wt1-33" value="cut off aa&lt;br&gt;(replace? flank_size = 0)" style="shape=partialRectangle;html=1;whiteSpace=wrap;connectable=0;strokeColor=inherit;overflow=hidden;fillColor=#666666;top=0;left=0;bottom=0;right=0;pointerEvents=1;fontSize=12;" vertex="1" parent="wXSr76FdmFWwSOD84wt1-31">
          <mxGeometry x="150" width="149" height="35" as="geometry">
            <mxRectangle width="149" height="35" as="alternateBounds" />
          </mxGeometry>
        </mxCell>
        <mxCell id="wXSr76FdmFWwSOD84wt1-34" value="" style="shape=tableRow;horizontal=0;startSize=0;swimlaneHead=0;swimlaneBody=0;strokeColor=inherit;top=0;left=0;bottom=0;right=0;collapsible=0;dropTarget=0;fillColor=none;points=[[0,0.5],[1,0.5]];portConstraint=eastwest;fontSize=16;" vertex="1" parent="wXSr76FdmFWwSOD84wt1-0">
          <mxGeometry y="414" width="299" height="33" as="geometry" />
        </mxCell>
        <mxCell id="wXSr76FdmFWwSOD84wt1-35" value="( flank_size = 3 )" style="shape=partialRectangle;html=1;whiteSpace=wrap;connectable=0;strokeColor=inherit;overflow=hidden;fillColor=#666666;top=0;left=0;bottom=0;right=0;pointerEvents=1;fontSize=12;" vertex="1" parent="wXSr76FdmFWwSOD84wt1-34">
          <mxGeometry width="150" height="33" as="geometry">
            <mxRectangle width="150" height="33" as="alternateBounds" />
          </mxGeometry>
        </mxCell>
        <mxCell id="wXSr76FdmFWwSOD84wt1-36" value="aa left/right cut off&lt;br&gt;i.e. trim_flank_size = 0" style="shape=partialRectangle;html=1;whiteSpace=wrap;connectable=0;strokeColor=inherit;overflow=hidden;fillColor=#666666;top=0;left=0;bottom=0;right=0;pointerEvents=1;fontSize=12;" vertex="1" parent="wXSr76FdmFWwSOD84wt1-34">
          <mxGeometry x="150" width="149" height="33" as="geometry">
            <mxRectangle width="149" height="33" as="alternateBounds" />
          </mxGeometry>
        </mxCell>
        <mxCell id="wXSr76FdmFWwSOD84wt1-37" value="" style="shape=tableRow;horizontal=0;startSize=0;swimlaneHead=0;swimlaneBody=0;strokeColor=inherit;top=0;left=0;bottom=0;right=0;collapsible=0;dropTarget=0;fillColor=none;points=[[0,0.5],[1,0.5]];portConstraint=eastwest;fontSize=16;" vertex="1" parent="wXSr76FdmFWwSOD84wt1-0">
          <mxGeometry y="447" width="299" height="31" as="geometry" />
        </mxCell>
        <mxCell id="wXSr76FdmFWwSOD84wt1-38" value="( global_pairs = NULL )" style="shape=partialRectangle;html=1;whiteSpace=wrap;connectable=0;strokeColor=inherit;overflow=hidden;fillColor=#666666;top=0;left=0;bottom=0;right=0;pointerEvents=1;fontSize=12;" vertex="1" parent="wXSr76FdmFWwSOD84wt1-37">
          <mxGeometry width="150" height="31" as="geometry">
            <mxRectangle width="150" height="31" as="alternateBounds" />
          </mxGeometry>
        </mxCell>
        <mxCell id="wXSr76FdmFWwSOD84wt1-39" value="precomputed global pairs" style="shape=partialRectangle;html=1;whiteSpace=wrap;connectable=0;strokeColor=inherit;overflow=hidden;fillColor=#666666;top=0;left=0;bottom=0;right=0;pointerEvents=1;fontSize=12;" vertex="1" parent="wXSr76FdmFWwSOD84wt1-37">
          <mxGeometry x="150" width="149" height="31" as="geometry">
            <mxRectangle width="149" height="31" as="alternateBounds" />
          </mxGeometry>
        </mxCell>
        <mxCell id="wXSr76FdmFWwSOD84wt1-84" value="" style="shape=tableRow;horizontal=0;startSize=0;swimlaneHead=0;swimlaneBody=0;strokeColor=inherit;top=0;left=0;bottom=0;right=0;collapsible=0;dropTarget=0;fillColor=none;points=[[0,0.5],[1,0.5]];portConstraint=eastwest;fontSize=16;" vertex="1" parent="wXSr76FdmFWwSOD84wt1-0">
          <mxGeometry y="478" width="299" height="32" as="geometry" />
        </mxCell>
        <mxCell id="wXSr76FdmFWwSOD84wt1-85" value="( low_mem = FALSE )" style="shape=partialRectangle;html=1;whiteSpace=wrap;connectable=0;strokeColor=inherit;overflow=hidden;fillColor=#666666;top=0;left=0;bottom=0;right=0;pointerEvents=1;fontSize=12;" vertex="1" parent="wXSr76FdmFWwSOD84wt1-84">
          <mxGeometry width="150" height="32" as="geometry">
            <mxRectangle width="150" height="32" as="alternateBounds" />
          </mxGeometry>
        </mxCell>
        <mxCell id="wXSr76FdmFWwSOD84wt1-86" value="slow looping with lower memory footprint" style="shape=partialRectangle;html=1;whiteSpace=wrap;connectable=0;strokeColor=inherit;overflow=hidden;fillColor=#666666;top=0;left=0;bottom=0;right=0;pointerEvents=1;fontSize=12;" vertex="1" parent="wXSr76FdmFWwSOD84wt1-84">
          <mxGeometry x="150" width="149" height="32" as="geometry">
            <mxRectangle width="149" height="32" as="alternateBounds" />
          </mxGeometry>
        </mxCell>
        <mxCell id="wXSr76FdmFWwSOD84wt1-40" value="return" style="shape=table;startSize=43;container=1;collapsible=0;childLayout=tableLayout;fontSize=16;verticalAlign=middle;fillColor=#666666;" vertex="1" parent="WIyWlLk6GJQsqaUBKTNV-1">
          <mxGeometry x="814" y="227" width="299" height="174.42105263157902" as="geometry" />
        </mxCell>
        <mxCell id="wXSr76FdmFWwSOD84wt1-41" value="" style="shape=tableRow;horizontal=0;startSize=0;swimlaneHead=0;swimlaneBody=0;strokeColor=inherit;top=0;left=0;bottom=0;right=0;collapsible=0;dropTarget=0;fillColor=none;points=[[0,0.5],[1,0.5]];portConstraint=eastwest;fontSize=16;" vertex="1" parent="wXSr76FdmFWwSOD84wt1-40">
          <mxGeometry y="43" width="299" height="32" as="geometry" />
        </mxCell>
        <mxCell id="wXSr76FdmFWwSOD84wt1-42" value="clust" style="shape=partialRectangle;html=1;whiteSpace=wrap;connectable=0;strokeColor=inherit;overflow=hidden;fillColor=#666666;top=0;left=0;bottom=0;right=0;pointerEvents=1;fontSize=12;" vertex="1" parent="wXSr76FdmFWwSOD84wt1-41">
          <mxGeometry width="150" height="32" as="geometry">
            <mxRectangle width="150" height="32" as="alternateBounds" />
          </mxGeometry>
        </mxCell>
        <mxCell id="wXSr76FdmFWwSOD84wt1-43" value="local + global clusters" style="shape=partialRectangle;html=1;whiteSpace=wrap;connectable=0;strokeColor=inherit;overflow=hidden;fillColor=#666666;top=0;left=0;bottom=0;right=0;pointerEvents=1;fontSize=12;" vertex="1" parent="wXSr76FdmFWwSOD84wt1-41">
          <mxGeometry x="150" width="149" height="32" as="geometry">
            <mxRectangle width="149" height="32" as="alternateBounds" />
          </mxGeometry>
        </mxCell>
        <mxCell id="wXSr76FdmFWwSOD84wt1-44" value="" style="shape=tableRow;horizontal=0;startSize=0;swimlaneHead=0;swimlaneBody=0;strokeColor=inherit;top=0;left=0;bottom=0;right=0;collapsible=0;dropTarget=0;fillColor=none;points=[[0,0.5],[1,0.5]];portConstraint=eastwest;fontSize=16;" vertex="1" parent="wXSr76FdmFWwSOD84wt1-40">
          <mxGeometry y="75" width="299" height="36" as="geometry" />
        </mxCell>
        <mxCell id="wXSr76FdmFWwSOD84wt1-45" value="edges" style="shape=partialRectangle;html=1;whiteSpace=wrap;connectable=0;strokeColor=inherit;overflow=hidden;fillColor=#666666;top=0;left=0;bottom=0;right=0;pointerEvents=1;fontSize=12;" vertex="1" parent="wXSr76FdmFWwSOD84wt1-44">
          <mxGeometry width="150" height="36" as="geometry">
            <mxRectangle width="150" height="36" as="alternateBounds" />
          </mxGeometry>
        </mxCell>
        <mxCell id="wXSr76FdmFWwSOD84wt1-46" value="local + global edges" style="shape=partialRectangle;html=1;whiteSpace=wrap;connectable=0;strokeColor=inherit;overflow=hidden;fillColor=#666666;top=0;left=0;bottom=0;right=0;pointerEvents=1;fontSize=12;" vertex="1" parent="wXSr76FdmFWwSOD84wt1-44">
          <mxGeometry x="150" width="149" height="36" as="geometry">
            <mxRectangle width="149" height="36" as="alternateBounds" />
          </mxGeometry>
        </mxCell>
        <mxCell id="wXSr76FdmFWwSOD84wt1-47" value="" style="shape=tableRow;horizontal=0;startSize=0;swimlaneHead=0;swimlaneBody=0;strokeColor=inherit;top=0;left=0;bottom=0;right=0;collapsible=0;dropTarget=0;fillColor=none;points=[[0,0.5],[1,0.5]];portConstraint=eastwest;fontSize=16;" vertex="1" parent="wXSr76FdmFWwSOD84wt1-40">
          <mxGeometry y="111" width="299" height="32" as="geometry" />
        </mxCell>
        <mxCell id="wXSr76FdmFWwSOD84wt1-48" value="data_sample" style="shape=partialRectangle;html=1;whiteSpace=wrap;connectable=0;strokeColor=inherit;overflow=hidden;fillColor=#666666;top=0;left=0;bottom=0;right=0;pointerEvents=1;fontSize=12;" vertex="1" parent="wXSr76FdmFWwSOD84wt1-47">
          <mxGeometry width="150" height="32" as="geometry">
            <mxRectangle width="150" height="32" as="alternateBounds" />
          </mxGeometry>
        </mxCell>
        <mxCell id="wXSr76FdmFWwSOD84wt1-49" value="indexed input data" style="shape=partialRectangle;html=1;whiteSpace=wrap;connectable=0;strokeColor=inherit;overflow=hidden;fillColor=#666666;top=0;left=0;bottom=0;right=0;pointerEvents=1;fontSize=12;" vertex="1" parent="wXSr76FdmFWwSOD84wt1-47">
          <mxGeometry x="150" width="149" height="32" as="geometry">
            <mxRectangle width="149" height="32" as="alternateBounds" />
          </mxGeometry>
        </mxCell>
        <mxCell id="wXSr76FdmFWwSOD84wt1-50" value="" style="shape=tableRow;horizontal=0;startSize=0;swimlaneHead=0;swimlaneBody=0;strokeColor=inherit;top=0;left=0;bottom=0;right=0;collapsible=0;dropTarget=0;fillColor=none;points=[[0,0.5],[1,0.5]];portConstraint=eastwest;fontSize=16;" vertex="1" parent="wXSr76FdmFWwSOD84wt1-40">
          <mxGeometry y="143" width="299" height="31" as="geometry" />
        </mxCell>
        <mxCell id="wXSr76FdmFWwSOD84wt1-51" value="control" style="shape=partialRectangle;html=1;whiteSpace=wrap;connectable=0;strokeColor=inherit;overflow=hidden;fillColor=#666666;top=0;left=0;bottom=0;right=0;pointerEvents=1;fontSize=12;" vertex="1" parent="wXSr76FdmFWwSOD84wt1-50">
          <mxGeometry width="150" height="31" as="geometry">
            <mxRectangle width="150" height="31" as="alternateBounds" />
          </mxGeometry>
        </mxCell>
        <mxCell id="wXSr76FdmFWwSOD84wt1-52" value="input parameters" style="shape=partialRectangle;html=1;whiteSpace=wrap;connectable=0;strokeColor=inherit;overflow=hidden;fillColor=#666666;top=0;left=0;bottom=0;right=0;pointerEvents=1;fontSize=12;" vertex="1" parent="wXSr76FdmFWwSOD84wt1-50">
          <mxGeometry x="150" width="149" height="31" as="geometry">
            <mxRectangle width="149" height="31" as="alternateBounds" />
          </mxGeometry>
        </mxCell>
      </root>
    </mxGraphModel>
  </diagram>
  <diagram name="util_v1.R" id="EEQugb6AHyEGp_raYXd-">
    <mxGraphModel dx="1451" dy="689" grid="0" gridSize="10" guides="1" tooltips="1" connect="1" arrows="1" fold="1" page="1" pageScale="1" pageWidth="1169" pageHeight="827" background="#1C1C1C" math="0" shadow="0">
      <root>
        <mxCell id="tUNUYp17RYrZfFOTdNO8-0" />
        <mxCell id="tUNUYp17RYrZfFOTdNO8-1" parent="tUNUYp17RYrZfFOTdNO8-0" />
        <mxCell id="tUNUYp17RYrZfFOTdNO8-2" value="&lt;font style=&quot;font-size: 20px;&quot;&gt;util_v1.R&lt;/font&gt;" style="swimlane;fontStyle=0;childLayout=stackLayout;horizontal=1;startSize=30;horizontalStack=0;resizeParent=1;resizeParentMax=0;resizeLast=0;collapsible=1;marginBottom=0;whiteSpace=wrap;html=1;swimlaneFillColor=none;fillStyle=auto;fillColor=#666666;shadow=0;" vertex="1" parent="tUNUYp17RYrZfFOTdNO8-1">
          <mxGeometry x="543.5" y="75" width="140" height="90" as="geometry">
            <mxRectangle x="99" y="41" width="68" height="30" as="alternateBounds" />
          </mxGeometry>
        </mxCell>
        <mxCell id="tUNUYp17RYrZfFOTdNO8-3" value="exec gliph1 pipeline" style="text;strokeColor=none;fillColor=#666666;align=left;verticalAlign=middle;spacingLeft=4;spacingRight=4;overflow=hidden;points=[[0,0.5],[1,0.5]];portConstraint=eastwest;rotatable=0;whiteSpace=wrap;html=1;shadow=0;" vertex="1" parent="tUNUYp17RYrZfFOTdNO8-2">
          <mxGeometry y="30" width="140" height="30" as="geometry" />
        </mxCell>
        <mxCell id="tUNUYp17RYrZfFOTdNO8-4" value="return local&amp;amp;global pairs" style="text;strokeColor=none;fillColor=#666666;align=left;verticalAlign=middle;spacingLeft=4;spacingRight=4;overflow=hidden;points=[[0,0.5],[1,0.5]];portConstraint=eastwest;rotatable=0;whiteSpace=wrap;html=1;shadow=0;" vertex="1" parent="tUNUYp17RYrZfFOTdNO8-2">
          <mxGeometry y="60" width="140" height="30" as="geometry" />
        </mxCell>
        <mxCell id="tUNUYp17RYrZfFOTdNO8-5" value="abstract exec flow" style="shape=table;startSize=37;container=1;collapsible=0;childLayout=tableLayout;fontSize=16;fillColor=#666666;" vertex="1" parent="tUNUYp17RYrZfFOTdNO8-1">
          <mxGeometry x="100" y="227" width="313" height="280.5072463768121" as="geometry" />
        </mxCell>
        <mxCell id="tUNUYp17RYrZfFOTdNO8-6" value="" style="shape=tableRow;horizontal=0;startSize=0;swimlaneHead=0;swimlaneBody=0;strokeColor=inherit;top=0;left=0;bottom=0;right=0;collapsible=0;dropTarget=0;fillColor=none;points=[[0,0.5],[1,0.5]];portConstraint=eastwest;fontSize=16;" vertex="1" parent="tUNUYp17RYrZfFOTdNO8-5">
          <mxGeometry y="37" width="313" height="41" as="geometry" />
        </mxCell>
        <mxCell id="tUNUYp17RYrZfFOTdNO8-7" value="get_motifs_v1()" style="shape=partialRectangle;html=1;whiteSpace=wrap;connectable=0;strokeColor=inherit;overflow=hidden;fillColor=#666666;top=0;left=0;bottom=0;right=0;pointerEvents=1;fontSize=12;" vertex="1" parent="tUNUYp17RYrZfFOTdNO8-6">
          <mxGeometry width="160" height="41" as="geometry">
            <mxRectangle width="160" height="41" as="alternateBounds" />
          </mxGeometry>
        </mxCell>
        <mxCell id="tUNUYp17RYrZfFOTdNO8-8" value="get local motifs" style="shape=partialRectangle;html=1;whiteSpace=wrap;connectable=0;strokeColor=inherit;overflow=hidden;fillColor=#666666;top=0;left=0;bottom=0;right=0;pointerEvents=1;fontSize=12;" vertex="1" parent="tUNUYp17RYrZfFOTdNO8-6">
          <mxGeometry x="160" width="153" height="41" as="geometry">
            <mxRectangle width="153" height="41" as="alternateBounds" />
          </mxGeometry>
        </mxCell>
        <mxCell id="tUNUYp17RYrZfFOTdNO8-9" value="" style="shape=tableRow;horizontal=0;startSize=0;swimlaneHead=0;swimlaneBody=0;strokeColor=inherit;top=0;left=0;bottom=0;right=0;collapsible=0;dropTarget=0;fillColor=none;points=[[0,0.5],[1,0.5]];portConstraint=eastwest;fontSize=16;" vertex="1" parent="tUNUYp17RYrZfFOTdNO8-5">
          <mxGeometry y="78" width="313" height="40" as="geometry" />
        </mxCell>
        <mxCell id="tUNUYp17RYrZfFOTdNO8-10" value="get_motif_enrichment_v1()" style="shape=partialRectangle;html=1;whiteSpace=wrap;connectable=0;strokeColor=inherit;overflow=hidden;fillColor=#666666;top=0;left=0;bottom=0;right=0;pointerEvents=1;fontSize=12;" vertex="1" parent="tUNUYp17RYrZfFOTdNO8-9">
          <mxGeometry width="160" height="40" as="geometry">
            <mxRectangle width="160" height="40" as="alternateBounds" />
          </mxGeometry>
        </mxCell>
        <mxCell id="tUNUYp17RYrZfFOTdNO8-11" value="get local enrichment" style="shape=partialRectangle;html=1;whiteSpace=wrap;connectable=0;strokeColor=inherit;overflow=hidden;fillColor=#666666;top=0;left=0;bottom=0;right=0;pointerEvents=1;fontSize=12;" vertex="1" parent="tUNUYp17RYrZfFOTdNO8-9">
          <mxGeometry x="160" width="153" height="40" as="geometry">
            <mxRectangle width="153" height="40" as="alternateBounds" />
          </mxGeometry>
        </mxCell>
        <mxCell id="tUNUYp17RYrZfFOTdNO8-12" value="" style="shape=tableRow;horizontal=0;startSize=0;swimlaneHead=0;swimlaneBody=0;strokeColor=inherit;top=0;left=0;bottom=0;right=0;collapsible=0;dropTarget=0;fillColor=none;points=[[0,0.5],[1,0.5]];portConstraint=eastwest;fontSize=16;" vertex="1" parent="tUNUYp17RYrZfFOTdNO8-5">
          <mxGeometry y="118" width="313" height="41" as="geometry" />
        </mxCell>
        <mxCell id="tUNUYp17RYrZfFOTdNO8-13" value="get_motif_filter_v1()" style="shape=partialRectangle;html=1;whiteSpace=wrap;connectable=0;strokeColor=inherit;overflow=hidden;fillColor=#666666;top=0;left=0;bottom=0;right=0;pointerEvents=1;fontSize=12;" vertex="1" parent="tUNUYp17RYrZfFOTdNO8-12">
          <mxGeometry width="160" height="41" as="geometry">
            <mxRectangle width="160" height="41" as="alternateBounds" />
          </mxGeometry>
        </mxCell>
        <mxCell id="tUNUYp17RYrZfFOTdNO8-14" value="filter by p, fold &amp;amp; observation cutoff" style="shape=partialRectangle;html=1;whiteSpace=wrap;connectable=0;strokeColor=inherit;overflow=hidden;fillColor=#666666;top=0;left=0;bottom=0;right=0;pointerEvents=1;fontSize=12;" vertex="1" parent="tUNUYp17RYrZfFOTdNO8-12">
          <mxGeometry x="160" width="153" height="41" as="geometry">
            <mxRectangle width="153" height="41" as="alternateBounds" />
          </mxGeometry>
        </mxCell>
        <mxCell id="tUNUYp17RYrZfFOTdNO8-15" value="" style="shape=tableRow;horizontal=0;startSize=0;swimlaneHead=0;swimlaneBody=0;strokeColor=inherit;top=0;left=0;bottom=0;right=0;collapsible=0;dropTarget=0;fillColor=none;points=[[0,0.5],[1,0.5]];portConstraint=eastwest;fontSize=16;" vertex="1" parent="tUNUYp17RYrZfFOTdNO8-5">
          <mxGeometry y="159" width="313" height="41" as="geometry" />
        </mxCell>
        <mxCell id="tUNUYp17RYrZfFOTdNO8-16" value="&lt;span style=&quot;font-style: normal;&quot;&gt;get_local_pair()&lt;br&gt;&lt;font style=&quot;font-size: 8px;&quot;&gt;util_v1_v2.R&lt;/font&gt;&lt;br&gt;&lt;/span&gt;" style="shape=partialRectangle;html=1;whiteSpace=wrap;connectable=0;strokeColor=inherit;overflow=hidden;fillColor=#666666;top=0;left=0;bottom=0;right=0;pointerEvents=1;fontSize=12;fontStyle=2" vertex="1" parent="tUNUYp17RYrZfFOTdNO8-15">
          <mxGeometry width="160" height="41" as="geometry">
            <mxRectangle width="160" height="41" as="alternateBounds" />
          </mxGeometry>
        </mxCell>
        <mxCell id="tUNUYp17RYrZfFOTdNO8-17" value="find local motif pairs" style="shape=partialRectangle;html=1;whiteSpace=wrap;connectable=0;strokeColor=inherit;overflow=hidden;fillColor=#666666;top=0;left=0;bottom=0;right=0;pointerEvents=1;fontSize=12;" vertex="1" parent="tUNUYp17RYrZfFOTdNO8-15">
          <mxGeometry x="160" width="153" height="41" as="geometry">
            <mxRectangle width="153" height="41" as="alternateBounds" />
          </mxGeometry>
        </mxCell>
        <mxCell id="tUNUYp17RYrZfFOTdNO8-18" value="" style="shape=tableRow;horizontal=0;startSize=0;swimlaneHead=0;swimlaneBody=0;strokeColor=inherit;top=0;left=0;bottom=0;right=0;collapsible=0;dropTarget=0;fillColor=none;points=[[0,0.5],[1,0.5]];portConstraint=eastwest;fontSize=16;" vertex="1" parent="tUNUYp17RYrZfFOTdNO8-5">
          <mxGeometry y="200" width="313" height="40" as="geometry" />
        </mxCell>
        <mxCell id="tUNUYp17RYrZfFOTdNO8-19" value="get_global_pairs/mem()&lt;br&gt;&lt;font style=&quot;font-size: 8px;&quot;&gt;util_v1_v2.R&lt;/font&gt;" style="shape=partialRectangle;html=1;whiteSpace=wrap;connectable=0;strokeColor=inherit;overflow=hidden;fillColor=#666666;top=0;left=0;bottom=0;right=0;pointerEvents=1;fontSize=12;fontStyle=0" vertex="1" parent="tUNUYp17RYrZfFOTdNO8-18">
          <mxGeometry width="160" height="40" as="geometry">
            <mxRectangle width="160" height="40" as="alternateBounds" />
          </mxGeometry>
        </mxCell>
        <mxCell id="tUNUYp17RYrZfFOTdNO8-20" value="get global pairs" style="shape=partialRectangle;html=1;whiteSpace=wrap;connectable=0;strokeColor=inherit;overflow=hidden;fillColor=#666666;top=0;left=0;bottom=0;right=0;pointerEvents=1;fontSize=12;" vertex="1" parent="tUNUYp17RYrZfFOTdNO8-18">
          <mxGeometry x="160" width="153" height="40" as="geometry">
            <mxRectangle width="153" height="40" as="alternateBounds" />
          </mxGeometry>
        </mxCell>
        <mxCell id="tUNUYp17RYrZfFOTdNO8-30" value="" style="shape=tableRow;horizontal=0;startSize=0;swimlaneHead=0;swimlaneBody=0;strokeColor=inherit;top=0;left=0;bottom=0;right=0;collapsible=0;dropTarget=0;fillColor=none;points=[[0,0.5],[1,0.5]];portConstraint=eastwest;fontSize=16;" vertex="1" parent="tUNUYp17RYrZfFOTdNO8-5">
          <mxGeometry y="240" width="313" height="41" as="geometry" />
        </mxCell>
        <mxCell id="tUNUYp17RYrZfFOTdNO8-31" value="return" style="shape=partialRectangle;html=1;whiteSpace=wrap;connectable=0;strokeColor=inherit;overflow=hidden;fillColor=#666666;top=0;left=0;bottom=0;right=0;pointerEvents=1;fontSize=12;" vertex="1" parent="tUNUYp17RYrZfFOTdNO8-30">
          <mxGeometry width="160" height="41" as="geometry">
            <mxRectangle width="160" height="41" as="alternateBounds" />
          </mxGeometry>
        </mxCell>
        <mxCell id="tUNUYp17RYrZfFOTdNO8-32" value="local &amp;amp; global pairs, motif enrichment" style="shape=partialRectangle;html=1;whiteSpace=wrap;connectable=0;strokeColor=inherit;overflow=hidden;fillColor=#666666;top=0;left=0;bottom=0;right=0;pointerEvents=1;fontSize=12;" vertex="1" parent="tUNUYp17RYrZfFOTdNO8-30">
          <mxGeometry x="160" width="153" height="41" as="geometry">
            <mxRectangle width="153" height="41" as="alternateBounds" />
          </mxGeometry>
        </mxCell>
        <mxCell id="tUNUYp17RYrZfFOTdNO8-33" value="input " style="shape=table;startSize=43;container=1;collapsible=0;childLayout=tableLayout;fontSize=16;verticalAlign=middle;fillColor=#666666;strokeWidth=1;swimlaneLine=1;shadow=0;rounded=0;perimeterSpacing=1;" vertex="1" parent="tUNUYp17RYrZfFOTdNO8-1">
          <mxGeometry x="464" y="227" width="299" height="453.72877846790885" as="geometry" />
        </mxCell>
        <mxCell id="tUNUYp17RYrZfFOTdNO8-34" value="" style="shape=tableRow;horizontal=0;startSize=0;swimlaneHead=0;swimlaneBody=0;strokeColor=inherit;top=0;left=0;bottom=0;right=0;collapsible=0;dropTarget=0;fillColor=none;points=[[0,0.5],[1,0.5]];portConstraint=eastwest;fontSize=16;" vertex="1" parent="tUNUYp17RYrZfFOTdNO8-33">
          <mxGeometry y="43" width="299" height="32" as="geometry" />
        </mxCell>
        <mxCell id="tUNUYp17RYrZfFOTdNO8-35" value="cdr3" style="shape=partialRectangle;html=1;whiteSpace=wrap;connectable=0;strokeColor=inherit;overflow=hidden;fillColor=#666666;top=0;left=0;bottom=0;right=0;pointerEvents=1;fontSize=12;" vertex="1" parent="tUNUYp17RYrZfFOTdNO8-34">
          <mxGeometry width="150" height="32" as="geometry">
            <mxRectangle width="150" height="32" as="alternateBounds" />
          </mxGeometry>
        </mxCell>
        <mxCell id="tUNUYp17RYrZfFOTdNO8-36" value="cdr3 sample" style="shape=partialRectangle;html=1;whiteSpace=wrap;connectable=0;strokeColor=inherit;overflow=hidden;fillColor=#666666;top=0;left=0;bottom=0;right=0;pointerEvents=1;fontSize=12;" vertex="1" parent="tUNUYp17RYrZfFOTdNO8-34">
          <mxGeometry x="150" width="149" height="32" as="geometry">
            <mxRectangle width="149" height="32" as="alternateBounds" />
          </mxGeometry>
        </mxCell>
        <mxCell id="tUNUYp17RYrZfFOTdNO8-37" value="" style="shape=tableRow;horizontal=0;startSize=0;swimlaneHead=0;swimlaneBody=0;strokeColor=inherit;top=0;left=0;bottom=0;right=0;collapsible=0;dropTarget=0;fillColor=none;points=[[0,0.5],[1,0.5]];portConstraint=eastwest;fontSize=16;" vertex="1" parent="tUNUYp17RYrZfFOTdNO8-33">
          <mxGeometry y="75" width="299" height="31" as="geometry" />
        </mxCell>
        <mxCell id="tUNUYp17RYrZfFOTdNO8-38" value="cdr3_ref" style="shape=partialRectangle;html=1;whiteSpace=wrap;connectable=0;strokeColor=inherit;overflow=hidden;fillColor=#666666;top=0;left=0;bottom=0;right=0;pointerEvents=1;fontSize=12;" vertex="1" parent="tUNUYp17RYrZfFOTdNO8-37">
          <mxGeometry width="150" height="31" as="geometry">
            <mxRectangle width="150" height="31" as="alternateBounds" />
          </mxGeometry>
        </mxCell>
        <mxCell id="tUNUYp17RYrZfFOTdNO8-39" value="cdr3 reference database" style="shape=partialRectangle;html=1;whiteSpace=wrap;connectable=0;strokeColor=inherit;overflow=hidden;fillColor=#666666;top=0;left=0;bottom=0;right=0;pointerEvents=1;fontSize=12;" vertex="1" parent="tUNUYp17RYrZfFOTdNO8-37">
          <mxGeometry x="150" width="149" height="31" as="geometry">
            <mxRectangle width="149" height="31" as="alternateBounds" />
          </mxGeometry>
        </mxCell>
        <mxCell id="tUNUYp17RYrZfFOTdNO8-43" value="" style="shape=tableRow;horizontal=0;startSize=0;swimlaneHead=0;swimlaneBody=0;strokeColor=inherit;top=0;left=0;bottom=0;right=0;collapsible=0;dropTarget=0;fillColor=none;points=[[0,0.5],[1,0.5]];portConstraint=eastwest;fontSize=16;" vertex="1" parent="tUNUYp17RYrZfFOTdNO8-33">
          <mxGeometry y="106" width="299" height="31" as="geometry" />
        </mxCell>
        <mxCell id="tUNUYp17RYrZfFOTdNO8-44" value="ks = c(2, 3, 4)" style="shape=partialRectangle;html=1;whiteSpace=wrap;connectable=0;strokeColor=inherit;overflow=hidden;fillColor=#666666;top=0;left=0;bottom=0;right=0;pointerEvents=1;fontSize=12;" vertex="1" parent="tUNUYp17RYrZfFOTdNO8-43">
          <mxGeometry width="150" height="31" as="geometry">
            <mxRectangle width="150" height="31" as="alternateBounds" />
          </mxGeometry>
        </mxCell>
        <mxCell id="tUNUYp17RYrZfFOTdNO8-45" value="motif lengths" style="shape=partialRectangle;html=1;whiteSpace=wrap;connectable=0;strokeColor=inherit;overflow=hidden;fillColor=#666666;top=0;left=0;bottom=0;right=0;pointerEvents=1;fontSize=12;" vertex="1" parent="tUNUYp17RYrZfFOTdNO8-43">
          <mxGeometry x="150" width="149" height="31" as="geometry">
            <mxRectangle width="149" height="31" as="alternateBounds" />
          </mxGeometry>
        </mxCell>
        <mxCell id="tUNUYp17RYrZfFOTdNO8-46" value="" style="shape=tableRow;horizontal=0;startSize=0;swimlaneHead=0;swimlaneBody=0;strokeColor=inherit;top=0;left=0;bottom=0;right=0;collapsible=0;dropTarget=0;fillColor=none;points=[[0,0.5],[1,0.5]];portConstraint=eastwest;fontSize=16;" vertex="1" parent="tUNUYp17RYrZfFOTdNO8-33">
          <mxGeometry y="137" width="299" height="30" as="geometry" />
        </mxCell>
        <mxCell id="tUNUYp17RYrZfFOTdNO8-47" value="cores = 1" style="shape=partialRectangle;html=1;whiteSpace=wrap;connectable=0;strokeColor=inherit;overflow=hidden;fillColor=#666666;top=0;left=0;bottom=0;right=0;pointerEvents=1;fontSize=12;" vertex="1" parent="tUNUYp17RYrZfFOTdNO8-46">
          <mxGeometry width="150" height="30" as="geometry">
            <mxRectangle width="150" height="30" as="alternateBounds" />
          </mxGeometry>
        </mxCell>
        <mxCell id="tUNUYp17RYrZfFOTdNO8-48" value="cpu cores" style="shape=partialRectangle;html=1;whiteSpace=wrap;connectable=0;strokeColor=inherit;overflow=hidden;fillColor=#666666;top=0;left=0;bottom=0;right=0;pointerEvents=1;fontSize=12;" vertex="1" parent="tUNUYp17RYrZfFOTdNO8-46">
          <mxGeometry x="150" width="149" height="30" as="geometry">
            <mxRectangle width="149" height="30" as="alternateBounds" />
          </mxGeometry>
        </mxCell>
        <mxCell id="tUNUYp17RYrZfFOTdNO8-49" value="" style="shape=tableRow;horizontal=0;startSize=0;swimlaneHead=0;swimlaneBody=0;strokeColor=inherit;top=0;left=0;bottom=0;right=0;collapsible=0;dropTarget=0;fillColor=none;points=[[0,0.5],[1,0.5]];portConstraint=eastwest;fontSize=16;" vertex="1" parent="tUNUYp17RYrZfFOTdNO8-33">
          <mxGeometry y="167" width="299" height="31" as="geometry" />
        </mxCell>
        <mxCell id="tUNUYp17RYrZfFOTdNO8-50" value="( B = 1000 )" style="shape=partialRectangle;html=1;whiteSpace=wrap;connectable=0;strokeColor=inherit;overflow=hidden;fillColor=#666666;top=0;left=0;bottom=0;right=0;pointerEvents=1;fontSize=12;" vertex="1" parent="tUNUYp17RYrZfFOTdNO8-49">
          <mxGeometry width="150" height="31" as="geometry">
            <mxRectangle width="150" height="31" as="alternateBounds" />
          </mxGeometry>
        </mxCell>
        <mxCell id="tUNUYp17RYrZfFOTdNO8-51" value="simulation depth" style="shape=partialRectangle;html=1;whiteSpace=wrap;connectable=0;strokeColor=inherit;overflow=hidden;fillColor=#666666;top=0;left=0;bottom=0;right=0;pointerEvents=1;fontSize=12;" vertex="1" parent="tUNUYp17RYrZfFOTdNO8-49">
          <mxGeometry x="150" width="149" height="31" as="geometry">
            <mxRectangle width="149" height="31" as="alternateBounds" />
          </mxGeometry>
        </mxCell>
        <mxCell id="tUNUYp17RYrZfFOTdNO8-52" value="" style="shape=tableRow;horizontal=0;startSize=0;swimlaneHead=0;swimlaneBody=0;strokeColor=inherit;top=0;left=0;bottom=0;right=0;collapsible=0;dropTarget=0;fillColor=none;points=[[0,0.5],[1,0.5]];portConstraint=eastwest;fontSize=16;" vertex="1" parent="tUNUYp17RYrZfFOTdNO8-33">
          <mxGeometry y="198" width="299" height="29" as="geometry" />
        </mxCell>
        <mxCell id="tUNUYp17RYrZfFOTdNO8-53" value="( global_max_dist = 1)" style="shape=partialRectangle;html=1;whiteSpace=wrap;connectable=0;strokeColor=inherit;overflow=hidden;fillColor=#666666;top=0;left=0;bottom=0;right=0;pointerEvents=1;fontSize=12;" vertex="1" parent="tUNUYp17RYrZfFOTdNO8-52">
          <mxGeometry width="150" height="29" as="geometry">
            <mxRectangle width="150" height="29" as="alternateBounds" />
          </mxGeometry>
        </mxCell>
        <mxCell id="tUNUYp17RYrZfFOTdNO8-54" value="max hamming distance" style="shape=partialRectangle;html=1;whiteSpace=wrap;connectable=0;strokeColor=inherit;overflow=hidden;fillColor=#666666;top=0;left=0;bottom=0;right=0;pointerEvents=1;fontSize=12;" vertex="1" parent="tUNUYp17RYrZfFOTdNO8-52">
          <mxGeometry x="150" width="149" height="29" as="geometry">
            <mxRectangle width="149" height="29" as="alternateBounds" />
          </mxGeometry>
        </mxCell>
        <mxCell id="tUNUYp17RYrZfFOTdNO8-55" value="" style="shape=tableRow;horizontal=0;startSize=0;swimlaneHead=0;swimlaneBody=0;strokeColor=inherit;top=0;left=0;bottom=0;right=0;collapsible=0;dropTarget=0;fillColor=none;points=[[0,0.5],[1,0.5]];portConstraint=eastwest;fontSize=16;" vertex="1" parent="tUNUYp17RYrZfFOTdNO8-33">
          <mxGeometry y="227" width="299" height="32" as="geometry" />
        </mxCell>
        <mxCell id="tUNUYp17RYrZfFOTdNO8-56" value="( local_min_p = 0.05 )" style="shape=partialRectangle;html=1;whiteSpace=wrap;connectable=0;strokeColor=inherit;overflow=hidden;fillColor=#666666;top=0;left=0;bottom=0;right=0;pointerEvents=1;fontSize=12;" vertex="1" parent="tUNUYp17RYrZfFOTdNO8-55">
          <mxGeometry width="150" height="32" as="geometry">
            <mxRectangle width="150" height="32" as="alternateBounds" />
          </mxGeometry>
        </mxCell>
        <mxCell id="tUNUYp17RYrZfFOTdNO8-57" value="max random prob cutoff&lt;br&gt;(&quot;local_max_p&quot; ?)" style="shape=partialRectangle;html=1;whiteSpace=wrap;connectable=0;strokeColor=inherit;overflow=hidden;fillColor=#666666;top=0;left=0;bottom=0;right=0;pointerEvents=1;fontSize=12;" vertex="1" parent="tUNUYp17RYrZfFOTdNO8-55">
          <mxGeometry x="150" width="149" height="32" as="geometry">
            <mxRectangle width="149" height="32" as="alternateBounds" />
          </mxGeometry>
        </mxCell>
        <mxCell id="tUNUYp17RYrZfFOTdNO8-58" value="" style="shape=tableRow;horizontal=0;startSize=0;swimlaneHead=0;swimlaneBody=0;strokeColor=inherit;top=0;left=0;bottom=0;right=0;collapsible=0;dropTarget=0;fillColor=none;points=[[0,0.5],[1,0.5]];portConstraint=eastwest;fontSize=16;" vertex="1" parent="tUNUYp17RYrZfFOTdNO8-33">
          <mxGeometry y="259" width="299" height="32" as="geometry" />
        </mxCell>
        <mxCell id="tUNUYp17RYrZfFOTdNO8-59" value="( local_min_ove = 2 )" style="shape=partialRectangle;html=1;whiteSpace=wrap;connectable=0;strokeColor=inherit;overflow=hidden;fillColor=#666666;top=0;left=0;bottom=0;right=0;pointerEvents=1;fontSize=12;" vertex="1" parent="tUNUYp17RYrZfFOTdNO8-58">
          <mxGeometry width="150" height="32" as="geometry">
            <mxRectangle width="150" height="32" as="alternateBounds" />
          </mxGeometry>
        </mxCell>
        <mxCell id="tUNUYp17RYrZfFOTdNO8-60" value="min fold enrichment" style="shape=partialRectangle;html=1;whiteSpace=wrap;connectable=0;strokeColor=inherit;overflow=hidden;fillColor=#666666;top=0;left=0;bottom=0;right=0;pointerEvents=1;fontSize=12;" vertex="1" parent="tUNUYp17RYrZfFOTdNO8-58">
          <mxGeometry x="150" width="149" height="32" as="geometry">
            <mxRectangle width="149" height="32" as="alternateBounds" />
          </mxGeometry>
        </mxCell>
        <mxCell id="tUNUYp17RYrZfFOTdNO8-61" value="" style="shape=tableRow;horizontal=0;startSize=0;swimlaneHead=0;swimlaneBody=0;strokeColor=inherit;top=0;left=0;bottom=0;right=0;collapsible=0;dropTarget=0;fillColor=none;points=[[0,0.5],[1,0.5]];portConstraint=eastwest;fontSize=16;" vertex="1" parent="tUNUYp17RYrZfFOTdNO8-33">
          <mxGeometry y="291" width="299" height="32" as="geometry" />
        </mxCell>
        <mxCell id="tUNUYp17RYrZfFOTdNO8-62" value="( local_min_o = 3 )" style="shape=partialRectangle;html=1;whiteSpace=wrap;connectable=0;strokeColor=inherit;overflow=hidden;fillColor=#666666;top=0;left=0;bottom=0;right=0;pointerEvents=1;fontSize=12;" vertex="1" parent="tUNUYp17RYrZfFOTdNO8-61">
          <mxGeometry width="150" height="32" as="geometry">
            <mxRectangle width="150" height="32" as="alternateBounds" />
          </mxGeometry>
        </mxCell>
        <mxCell id="tUNUYp17RYrZfFOTdNO8-63" value="min motif observations" style="shape=partialRectangle;html=1;whiteSpace=wrap;connectable=0;strokeColor=inherit;overflow=hidden;fillColor=#666666;top=0;left=0;bottom=0;right=0;pointerEvents=1;fontSize=12;" vertex="1" parent="tUNUYp17RYrZfFOTdNO8-61">
          <mxGeometry x="150" width="149" height="32" as="geometry">
            <mxRectangle width="149" height="32" as="alternateBounds" />
          </mxGeometry>
        </mxCell>
        <mxCell id="tUNUYp17RYrZfFOTdNO8-64" value="" style="shape=tableRow;horizontal=0;startSize=0;swimlaneHead=0;swimlaneBody=0;strokeColor=inherit;top=0;left=0;bottom=0;right=0;collapsible=0;dropTarget=0;fillColor=none;points=[[0,0.5],[1,0.5]];portConstraint=eastwest;fontSize=16;" vertex="1" parent="tUNUYp17RYrZfFOTdNO8-33">
          <mxGeometry y="323" width="299" height="35" as="geometry" />
        </mxCell>
        <mxCell id="tUNUYp17RYrZfFOTdNO8-65" value="( trim_flanks = FALSE )" style="shape=partialRectangle;html=1;whiteSpace=wrap;connectable=0;strokeColor=inherit;overflow=hidden;fillColor=#666666;top=0;left=0;bottom=0;right=0;pointerEvents=1;fontSize=12;" vertex="1" parent="tUNUYp17RYrZfFOTdNO8-64">
          <mxGeometry width="150" height="35" as="geometry">
            <mxRectangle width="150" height="35" as="alternateBounds" />
          </mxGeometry>
        </mxCell>
        <mxCell id="tUNUYp17RYrZfFOTdNO8-66" value="cut off aa&lt;br&gt;(replace? flank_size = 0)" style="shape=partialRectangle;html=1;whiteSpace=wrap;connectable=0;strokeColor=inherit;overflow=hidden;fillColor=#666666;top=0;left=0;bottom=0;right=0;pointerEvents=1;fontSize=12;" vertex="1" parent="tUNUYp17RYrZfFOTdNO8-64">
          <mxGeometry x="150" width="149" height="35" as="geometry">
            <mxRectangle width="149" height="35" as="alternateBounds" />
          </mxGeometry>
        </mxCell>
        <mxCell id="tUNUYp17RYrZfFOTdNO8-67" value="" style="shape=tableRow;horizontal=0;startSize=0;swimlaneHead=0;swimlaneBody=0;strokeColor=inherit;top=0;left=0;bottom=0;right=0;collapsible=0;dropTarget=0;fillColor=none;points=[[0,0.5],[1,0.5]];portConstraint=eastwest;fontSize=16;" vertex="1" parent="tUNUYp17RYrZfFOTdNO8-33">
          <mxGeometry y="358" width="299" height="33" as="geometry" />
        </mxCell>
        <mxCell id="tUNUYp17RYrZfFOTdNO8-68" value="( flank_size = 3 )" style="shape=partialRectangle;html=1;whiteSpace=wrap;connectable=0;strokeColor=inherit;overflow=hidden;fillColor=#666666;top=0;left=0;bottom=0;right=0;pointerEvents=1;fontSize=12;" vertex="1" parent="tUNUYp17RYrZfFOTdNO8-67">
          <mxGeometry width="150" height="33" as="geometry">
            <mxRectangle width="150" height="33" as="alternateBounds" />
          </mxGeometry>
        </mxCell>
        <mxCell id="tUNUYp17RYrZfFOTdNO8-69" value="aa left/right cut off" style="shape=partialRectangle;html=1;whiteSpace=wrap;connectable=0;strokeColor=inherit;overflow=hidden;fillColor=#666666;top=0;left=0;bottom=0;right=0;pointerEvents=1;fontSize=12;" vertex="1" parent="tUNUYp17RYrZfFOTdNO8-67">
          <mxGeometry x="150" width="149" height="33" as="geometry">
            <mxRectangle width="149" height="33" as="alternateBounds" />
          </mxGeometry>
        </mxCell>
        <mxCell id="tUNUYp17RYrZfFOTdNO8-70" value="" style="shape=tableRow;horizontal=0;startSize=0;swimlaneHead=0;swimlaneBody=0;strokeColor=inherit;top=0;left=0;bottom=0;right=0;collapsible=0;dropTarget=0;fillColor=none;points=[[0,0.5],[1,0.5]];portConstraint=eastwest;fontSize=16;" vertex="1" parent="tUNUYp17RYrZfFOTdNO8-33">
          <mxGeometry y="391" width="299" height="31" as="geometry" />
        </mxCell>
        <mxCell id="tUNUYp17RYrZfFOTdNO8-71" value="( global_pairs = NULL )" style="shape=partialRectangle;html=1;whiteSpace=wrap;connectable=0;strokeColor=inherit;overflow=hidden;fillColor=#666666;top=0;left=0;bottom=0;right=0;pointerEvents=1;fontSize=12;" vertex="1" parent="tUNUYp17RYrZfFOTdNO8-70">
          <mxGeometry width="150" height="31" as="geometry">
            <mxRectangle width="150" height="31" as="alternateBounds" />
          </mxGeometry>
        </mxCell>
        <mxCell id="tUNUYp17RYrZfFOTdNO8-72" value="precomputed global pairs (?)" style="shape=partialRectangle;html=1;whiteSpace=wrap;connectable=0;strokeColor=inherit;overflow=hidden;fillColor=#666666;top=0;left=0;bottom=0;right=0;pointerEvents=1;fontSize=12;" vertex="1" parent="tUNUYp17RYrZfFOTdNO8-70">
          <mxGeometry x="150" width="149" height="31" as="geometry">
            <mxRectangle width="149" height="31" as="alternateBounds" />
          </mxGeometry>
        </mxCell>
        <mxCell id="tUNUYp17RYrZfFOTdNO8-73" value="" style="shape=tableRow;horizontal=0;startSize=0;swimlaneHead=0;swimlaneBody=0;strokeColor=inherit;top=0;left=0;bottom=0;right=0;collapsible=0;dropTarget=0;fillColor=none;points=[[0,0.5],[1,0.5]];portConstraint=eastwest;fontSize=16;" vertex="1" parent="tUNUYp17RYrZfFOTdNO8-33">
          <mxGeometry y="422" width="299" height="32" as="geometry" />
        </mxCell>
        <mxCell id="tUNUYp17RYrZfFOTdNO8-74" value="( low_mem = FALSE )" style="shape=partialRectangle;html=1;whiteSpace=wrap;connectable=0;strokeColor=inherit;overflow=hidden;fillColor=#666666;top=0;left=0;bottom=0;right=0;pointerEvents=1;fontSize=12;" vertex="1" parent="tUNUYp17RYrZfFOTdNO8-73">
          <mxGeometry width="150" height="32" as="geometry">
            <mxRectangle width="150" height="32" as="alternateBounds" />
          </mxGeometry>
        </mxCell>
        <mxCell id="tUNUYp17RYrZfFOTdNO8-75" value="slow looping with lower memory footpring" style="shape=partialRectangle;html=1;whiteSpace=wrap;connectable=0;strokeColor=inherit;overflow=hidden;fillColor=#666666;top=0;left=0;bottom=0;right=0;pointerEvents=1;fontSize=12;" vertex="1" parent="tUNUYp17RYrZfFOTdNO8-73">
          <mxGeometry x="150" width="149" height="32" as="geometry">
            <mxRectangle width="149" height="32" as="alternateBounds" />
          </mxGeometry>
        </mxCell>
        <mxCell id="tUNUYp17RYrZfFOTdNO8-76" value="return" style="shape=table;startSize=43;container=1;collapsible=0;childLayout=tableLayout;fontSize=16;verticalAlign=middle;fillColor=#666666;" vertex="1" parent="tUNUYp17RYrZfFOTdNO8-1">
          <mxGeometry x="814" y="227" width="299" height="143.42105263157902" as="geometry" />
        </mxCell>
        <mxCell id="tUNUYp17RYrZfFOTdNO8-77" value="" style="shape=tableRow;horizontal=0;startSize=0;swimlaneHead=0;swimlaneBody=0;strokeColor=inherit;top=0;left=0;bottom=0;right=0;collapsible=0;dropTarget=0;fillColor=none;points=[[0,0.5],[1,0.5]];portConstraint=eastwest;fontSize=16;" vertex="1" parent="tUNUYp17RYrZfFOTdNO8-76">
          <mxGeometry y="43" width="299" height="32" as="geometry" />
        </mxCell>
        <mxCell id="tUNUYp17RYrZfFOTdNO8-78" value="local_pairs" style="shape=partialRectangle;html=1;whiteSpace=wrap;connectable=0;strokeColor=inherit;overflow=hidden;fillColor=#666666;top=0;left=0;bottom=0;right=0;pointerEvents=1;fontSize=12;" vertex="1" parent="tUNUYp17RYrZfFOTdNO8-77">
          <mxGeometry width="150" height="32" as="geometry">
            <mxRectangle width="150" height="32" as="alternateBounds" />
          </mxGeometry>
        </mxCell>
        <mxCell id="tUNUYp17RYrZfFOTdNO8-79" value="local cdr3 pairs" style="shape=partialRectangle;html=1;whiteSpace=wrap;connectable=0;strokeColor=inherit;overflow=hidden;fillColor=#666666;top=0;left=0;bottom=0;right=0;pointerEvents=1;fontSize=12;" vertex="1" parent="tUNUYp17RYrZfFOTdNO8-77">
          <mxGeometry x="150" width="149" height="32" as="geometry">
            <mxRectangle width="149" height="32" as="alternateBounds" />
          </mxGeometry>
        </mxCell>
        <mxCell id="tUNUYp17RYrZfFOTdNO8-80" value="" style="shape=tableRow;horizontal=0;startSize=0;swimlaneHead=0;swimlaneBody=0;strokeColor=inherit;top=0;left=0;bottom=0;right=0;collapsible=0;dropTarget=0;fillColor=none;points=[[0,0.5],[1,0.5]];portConstraint=eastwest;fontSize=16;" vertex="1" parent="tUNUYp17RYrZfFOTdNO8-76">
          <mxGeometry y="75" width="299" height="36" as="geometry" />
        </mxCell>
        <mxCell id="tUNUYp17RYrZfFOTdNO8-81" value="global_pairs" style="shape=partialRectangle;html=1;whiteSpace=wrap;connectable=0;strokeColor=inherit;overflow=hidden;fillColor=#666666;top=0;left=0;bottom=0;right=0;pointerEvents=1;fontSize=12;" vertex="1" parent="tUNUYp17RYrZfFOTdNO8-80">
          <mxGeometry width="150" height="36" as="geometry">
            <mxRectangle width="150" height="36" as="alternateBounds" />
          </mxGeometry>
        </mxCell>
        <mxCell id="tUNUYp17RYrZfFOTdNO8-82" value="global cdr3 pairs" style="shape=partialRectangle;html=1;whiteSpace=wrap;connectable=0;strokeColor=inherit;overflow=hidden;fillColor=#666666;top=0;left=0;bottom=0;right=0;pointerEvents=1;fontSize=12;" vertex="1" parent="tUNUYp17RYrZfFOTdNO8-80">
          <mxGeometry x="150" width="149" height="36" as="geometry">
            <mxRectangle width="149" height="36" as="alternateBounds" />
          </mxGeometry>
        </mxCell>
        <mxCell id="tUNUYp17RYrZfFOTdNO8-83" value="" style="shape=tableRow;horizontal=0;startSize=0;swimlaneHead=0;swimlaneBody=0;strokeColor=inherit;top=0;left=0;bottom=0;right=0;collapsible=0;dropTarget=0;fillColor=none;points=[[0,0.5],[1,0.5]];portConstraint=eastwest;fontSize=16;" vertex="1" parent="tUNUYp17RYrZfFOTdNO8-76">
          <mxGeometry y="111" width="299" height="32" as="geometry" />
        </mxCell>
        <mxCell id="tUNUYp17RYrZfFOTdNO8-84" value="motif_enrichment" style="shape=partialRectangle;html=1;whiteSpace=wrap;connectable=0;strokeColor=inherit;overflow=hidden;fillColor=#666666;top=0;left=0;bottom=0;right=0;pointerEvents=1;fontSize=12;" vertex="1" parent="tUNUYp17RYrZfFOTdNO8-83">
          <mxGeometry width="150" height="32" as="geometry">
            <mxRectangle width="150" height="32" as="alternateBounds" />
          </mxGeometry>
        </mxCell>
        <mxCell id="tUNUYp17RYrZfFOTdNO8-85" value="indexed input data" style="shape=partialRectangle;html=1;whiteSpace=wrap;connectable=0;strokeColor=inherit;overflow=hidden;fillColor=#666666;top=0;left=0;bottom=0;right=0;pointerEvents=1;fontSize=12;" vertex="1" parent="tUNUYp17RYrZfFOTdNO8-83">
          <mxGeometry x="150" width="149" height="32" as="geometry">
            <mxRectangle width="149" height="32" as="alternateBounds" />
          </mxGeometry>
        </mxCell>
      </root>
    </mxGraphModel>
  </diagram>
  <diagram name="util_v2.R" id="jLkdRs8ej_SC_N_rbAx9">
    <mxGraphModel dx="1397" dy="664" grid="0" gridSize="10" guides="1" tooltips="1" connect="1" arrows="1" fold="1" page="1" pageScale="1" pageWidth="1169" pageHeight="827" background="#1C1C1C" math="0" shadow="0">
      <root>
        <mxCell id="wRM7waIHbyNujgvK-kwP-0" />
        <mxCell id="wRM7waIHbyNujgvK-kwP-1" parent="wRM7waIHbyNujgvK-kwP-0" />
        <mxCell id="wRM7waIHbyNujgvK-kwP-2" value="&lt;font style=&quot;font-size: 20px;&quot;&gt;util_v2.R&lt;/font&gt;" style="swimlane;fontStyle=0;childLayout=stackLayout;horizontal=1;startSize=30;horizontalStack=0;resizeParent=1;resizeParentMax=0;resizeLast=0;collapsible=1;marginBottom=0;whiteSpace=wrap;html=1;swimlaneFillColor=none;fillStyle=auto;fillColor=#666666;shadow=0;" vertex="1" parent="wRM7waIHbyNujgvK-kwP-1">
          <mxGeometry x="543.5" y="75" width="140" height="90" as="geometry">
            <mxRectangle x="99" y="41" width="68" height="30" as="alternateBounds" />
          </mxGeometry>
        </mxCell>
        <mxCell id="wRM7waIHbyNujgvK-kwP-3" value="exec gliph2+3 pipeline" style="text;strokeColor=none;fillColor=#666666;align=left;verticalAlign=middle;spacingLeft=4;spacingRight=4;overflow=hidden;points=[[0,0.5],[1,0.5]];portConstraint=eastwest;rotatable=0;whiteSpace=wrap;html=1;shadow=0;" vertex="1" parent="wRM7waIHbyNujgvK-kwP-2">
          <mxGeometry y="30" width="140" height="30" as="geometry" />
        </mxCell>
        <mxCell id="wRM7waIHbyNujgvK-kwP-4" value="return local&amp;amp;global pairs" style="text;strokeColor=none;fillColor=#666666;align=left;verticalAlign=middle;spacingLeft=4;spacingRight=4;overflow=hidden;points=[[0,0.5],[1,0.5]];portConstraint=eastwest;rotatable=0;whiteSpace=wrap;html=1;shadow=0;" vertex="1" parent="wRM7waIHbyNujgvK-kwP-2">
          <mxGeometry y="60" width="140" height="30" as="geometry" />
        </mxCell>
        <mxCell id="wRM7waIHbyNujgvK-kwP-5" value="abstract exec flow" style="shape=table;startSize=37;container=1;collapsible=0;childLayout=tableLayout;fontSize=16;fillColor=#666666;" vertex="1" parent="wRM7waIHbyNujgvK-kwP-1">
          <mxGeometry x="100" y="227" width="313" height="280.5072463768121" as="geometry" />
        </mxCell>
        <mxCell id="wRM7waIHbyNujgvK-kwP-6" value="" style="shape=tableRow;horizontal=0;startSize=0;swimlaneHead=0;swimlaneBody=0;strokeColor=inherit;top=0;left=0;bottom=0;right=0;collapsible=0;dropTarget=0;fillColor=none;points=[[0,0.5],[1,0.5]];portConstraint=eastwest;fontSize=16;" vertex="1" parent="wRM7waIHbyNujgvK-kwP-5">
          <mxGeometry y="37" width="313" height="41" as="geometry" />
        </mxCell>
        <mxCell id="wRM7waIHbyNujgvK-kwP-7" value="get_motifs_v2()" style="shape=partialRectangle;html=1;whiteSpace=wrap;connectable=0;strokeColor=inherit;overflow=hidden;fillColor=#666666;top=0;left=0;bottom=0;right=0;pointerEvents=1;fontSize=12;" vertex="1" parent="wRM7waIHbyNujgvK-kwP-6">
          <mxGeometry width="160" height="41" as="geometry">
            <mxRectangle width="160" height="41" as="alternateBounds" />
          </mxGeometry>
        </mxCell>
        <mxCell id="wRM7waIHbyNujgvK-kwP-8" value="get local motifs" style="shape=partialRectangle;html=1;whiteSpace=wrap;connectable=0;strokeColor=inherit;overflow=hidden;fillColor=#666666;top=0;left=0;bottom=0;right=0;pointerEvents=1;fontSize=12;" vertex="1" parent="wRM7waIHbyNujgvK-kwP-6">
          <mxGeometry x="160" width="153" height="41" as="geometry">
            <mxRectangle width="153" height="41" as="alternateBounds" />
          </mxGeometry>
        </mxCell>
        <mxCell id="wRM7waIHbyNujgvK-kwP-9" value="" style="shape=tableRow;horizontal=0;startSize=0;swimlaneHead=0;swimlaneBody=0;strokeColor=inherit;top=0;left=0;bottom=0;right=0;collapsible=0;dropTarget=0;fillColor=none;points=[[0,0.5],[1,0.5]];portConstraint=eastwest;fontSize=16;" vertex="1" parent="wRM7waIHbyNujgvK-kwP-5">
          <mxGeometry y="78" width="313" height="40" as="geometry" />
        </mxCell>
        <mxCell id="wRM7waIHbyNujgvK-kwP-10" value="&lt;font style=&quot;font-size: 11px;&quot;&gt;get_motif_enrichment_fet_v2()&lt;/font&gt;" style="shape=partialRectangle;html=1;whiteSpace=wrap;connectable=0;strokeColor=inherit;overflow=hidden;fillColor=#666666;top=0;left=0;bottom=0;right=0;pointerEvents=1;fontSize=12;" vertex="1" parent="wRM7waIHbyNujgvK-kwP-9">
          <mxGeometry width="160" height="40" as="geometry">
            <mxRectangle width="160" height="40" as="alternateBounds" />
          </mxGeometry>
        </mxCell>
        <mxCell id="wRM7waIHbyNujgvK-kwP-11" value="get local enrichment with fisher&#39;s exact test" style="shape=partialRectangle;html=1;whiteSpace=wrap;connectable=0;strokeColor=inherit;overflow=hidden;fillColor=#666666;top=0;left=0;bottom=0;right=0;pointerEvents=1;fontSize=12;" vertex="1" parent="wRM7waIHbyNujgvK-kwP-9">
          <mxGeometry x="160" width="153" height="40" as="geometry">
            <mxRectangle width="153" height="40" as="alternateBounds" />
          </mxGeometry>
        </mxCell>
        <mxCell id="wRM7waIHbyNujgvK-kwP-12" value="" style="shape=tableRow;horizontal=0;startSize=0;swimlaneHead=0;swimlaneBody=0;strokeColor=inherit;top=0;left=0;bottom=0;right=0;collapsible=0;dropTarget=0;fillColor=none;points=[[0,0.5],[1,0.5]];portConstraint=eastwest;fontSize=16;" vertex="1" parent="wRM7waIHbyNujgvK-kwP-5">
          <mxGeometry y="118" width="313" height="41" as="geometry" />
        </mxCell>
        <mxCell id="wRM7waIHbyNujgvK-kwP-13" value="get_motif_filter_v2()" style="shape=partialRectangle;html=1;whiteSpace=wrap;connectable=0;strokeColor=inherit;overflow=hidden;fillColor=#666666;top=0;left=0;bottom=0;right=0;pointerEvents=1;fontSize=12;" vertex="1" parent="wRM7waIHbyNujgvK-kwP-12">
          <mxGeometry width="160" height="41" as="geometry">
            <mxRectangle width="160" height="41" as="alternateBounds" />
          </mxGeometry>
        </mxCell>
        <mxCell id="wRM7waIHbyNujgvK-kwP-14" value="filter by p, fold &amp;amp; observation cutoff" style="shape=partialRectangle;html=1;whiteSpace=wrap;connectable=0;strokeColor=inherit;overflow=hidden;fillColor=#666666;top=0;left=0;bottom=0;right=0;pointerEvents=1;fontSize=12;" vertex="1" parent="wRM7waIHbyNujgvK-kwP-12">
          <mxGeometry x="160" width="153" height="41" as="geometry">
            <mxRectangle width="153" height="41" as="alternateBounds" />
          </mxGeometry>
        </mxCell>
        <mxCell id="wRM7waIHbyNujgvK-kwP-15" value="" style="shape=tableRow;horizontal=0;startSize=0;swimlaneHead=0;swimlaneBody=0;strokeColor=inherit;top=0;left=0;bottom=0;right=0;collapsible=0;dropTarget=0;fillColor=none;points=[[0,0.5],[1,0.5]];portConstraint=eastwest;fontSize=16;" vertex="1" parent="wRM7waIHbyNujgvK-kwP-5">
          <mxGeometry y="159" width="313" height="41" as="geometry" />
        </mxCell>
        <mxCell id="wRM7waIHbyNujgvK-kwP-16" value="&lt;span style=&quot;font-style: normal;&quot;&gt;get_local_pair()&lt;br&gt;&lt;font style=&quot;font-size: 8px;&quot;&gt;util_v1_v2.R&lt;/font&gt;&lt;br&gt;&lt;/span&gt;" style="shape=partialRectangle;html=1;whiteSpace=wrap;connectable=0;strokeColor=inherit;overflow=hidden;fillColor=#666666;top=0;left=0;bottom=0;right=0;pointerEvents=1;fontSize=12;fontStyle=2" vertex="1" parent="wRM7waIHbyNujgvK-kwP-15">
          <mxGeometry width="160" height="41" as="geometry">
            <mxRectangle width="160" height="41" as="alternateBounds" />
          </mxGeometry>
        </mxCell>
        <mxCell id="wRM7waIHbyNujgvK-kwP-17" value="find local motif pairs" style="shape=partialRectangle;html=1;whiteSpace=wrap;connectable=0;strokeColor=inherit;overflow=hidden;fillColor=#666666;top=0;left=0;bottom=0;right=0;pointerEvents=1;fontSize=12;" vertex="1" parent="wRM7waIHbyNujgvK-kwP-15">
          <mxGeometry x="160" width="153" height="41" as="geometry">
            <mxRectangle width="153" height="41" as="alternateBounds" />
          </mxGeometry>
        </mxCell>
        <mxCell id="wRM7waIHbyNujgvK-kwP-18" value="" style="shape=tableRow;horizontal=0;startSize=0;swimlaneHead=0;swimlaneBody=0;strokeColor=inherit;top=0;left=0;bottom=0;right=0;collapsible=0;dropTarget=0;fillColor=none;points=[[0,0.5],[1,0.5]];portConstraint=eastwest;fontSize=16;" vertex="1" parent="wRM7waIHbyNujgvK-kwP-5">
          <mxGeometry y="200" width="313" height="40" as="geometry" />
        </mxCell>
        <mxCell id="wRM7waIHbyNujgvK-kwP-19" value="get_global_pairs/mem()&lt;br&gt;&lt;font style=&quot;font-size: 8px;&quot;&gt;util_v1_v2.R&lt;/font&gt;" style="shape=partialRectangle;html=1;whiteSpace=wrap;connectable=0;strokeColor=inherit;overflow=hidden;fillColor=#666666;top=0;left=0;bottom=0;right=0;pointerEvents=1;fontSize=12;fontStyle=0" vertex="1" parent="wRM7waIHbyNujgvK-kwP-18">
          <mxGeometry width="160" height="40" as="geometry">
            <mxRectangle width="160" height="40" as="alternateBounds" />
          </mxGeometry>
        </mxCell>
        <mxCell id="wRM7waIHbyNujgvK-kwP-20" value="get global pairs" style="shape=partialRectangle;html=1;whiteSpace=wrap;connectable=0;strokeColor=inherit;overflow=hidden;fillColor=#666666;top=0;left=0;bottom=0;right=0;pointerEvents=1;fontSize=12;" vertex="1" parent="wRM7waIHbyNujgvK-kwP-18">
          <mxGeometry x="160" width="153" height="40" as="geometry">
            <mxRectangle width="153" height="40" as="alternateBounds" />
          </mxGeometry>
        </mxCell>
        <mxCell id="wRM7waIHbyNujgvK-kwP-21" value="" style="shape=tableRow;horizontal=0;startSize=0;swimlaneHead=0;swimlaneBody=0;strokeColor=inherit;top=0;left=0;bottom=0;right=0;collapsible=0;dropTarget=0;fillColor=none;points=[[0,0.5],[1,0.5]];portConstraint=eastwest;fontSize=16;" vertex="1" parent="wRM7waIHbyNujgvK-kwP-5">
          <mxGeometry y="240" width="313" height="41" as="geometry" />
        </mxCell>
        <mxCell id="wRM7waIHbyNujgvK-kwP-22" value="return" style="shape=partialRectangle;html=1;whiteSpace=wrap;connectable=0;strokeColor=inherit;overflow=hidden;fillColor=#666666;top=0;left=0;bottom=0;right=0;pointerEvents=1;fontSize=12;" vertex="1" parent="wRM7waIHbyNujgvK-kwP-21">
          <mxGeometry width="160" height="41" as="geometry">
            <mxRectangle width="160" height="41" as="alternateBounds" />
          </mxGeometry>
        </mxCell>
        <mxCell id="wRM7waIHbyNujgvK-kwP-23" value="local &amp;amp; global pairs, motif enrichment" style="shape=partialRectangle;html=1;whiteSpace=wrap;connectable=0;strokeColor=inherit;overflow=hidden;fillColor=#666666;top=0;left=0;bottom=0;right=0;pointerEvents=1;fontSize=12;" vertex="1" parent="wRM7waIHbyNujgvK-kwP-21">
          <mxGeometry x="160" width="153" height="41" as="geometry">
            <mxRectangle width="153" height="41" as="alternateBounds" />
          </mxGeometry>
        </mxCell>
        <mxCell id="wRM7waIHbyNujgvK-kwP-24" value="input " style="shape=table;startSize=43;container=1;collapsible=0;childLayout=tableLayout;fontSize=16;verticalAlign=middle;fillColor=#666666;strokeWidth=1;swimlaneLine=1;shadow=0;rounded=0;perimeterSpacing=1;" vertex="1" parent="wRM7waIHbyNujgvK-kwP-1">
          <mxGeometry x="464" y="227" width="299" height="453.72877846790885" as="geometry" />
        </mxCell>
        <mxCell id="wRM7waIHbyNujgvK-kwP-25" value="" style="shape=tableRow;horizontal=0;startSize=0;swimlaneHead=0;swimlaneBody=0;strokeColor=inherit;top=0;left=0;bottom=0;right=0;collapsible=0;dropTarget=0;fillColor=none;points=[[0,0.5],[1,0.5]];portConstraint=eastwest;fontSize=16;" vertex="1" parent="wRM7waIHbyNujgvK-kwP-24">
          <mxGeometry y="43" width="299" height="32" as="geometry" />
        </mxCell>
        <mxCell id="wRM7waIHbyNujgvK-kwP-26" value="cdr3" style="shape=partialRectangle;html=1;whiteSpace=wrap;connectable=0;strokeColor=inherit;overflow=hidden;fillColor=#666666;top=0;left=0;bottom=0;right=0;pointerEvents=1;fontSize=12;" vertex="1" parent="wRM7waIHbyNujgvK-kwP-25">
          <mxGeometry width="150" height="32" as="geometry">
            <mxRectangle width="150" height="32" as="alternateBounds" />
          </mxGeometry>
        </mxCell>
        <mxCell id="wRM7waIHbyNujgvK-kwP-27" value="cdr3 sample" style="shape=partialRectangle;html=1;whiteSpace=wrap;connectable=0;strokeColor=inherit;overflow=hidden;fillColor=#666666;top=0;left=0;bottom=0;right=0;pointerEvents=1;fontSize=12;" vertex="1" parent="wRM7waIHbyNujgvK-kwP-25">
          <mxGeometry x="150" width="149" height="32" as="geometry">
            <mxRectangle width="149" height="32" as="alternateBounds" />
          </mxGeometry>
        </mxCell>
        <mxCell id="wRM7waIHbyNujgvK-kwP-28" value="" style="shape=tableRow;horizontal=0;startSize=0;swimlaneHead=0;swimlaneBody=0;strokeColor=inherit;top=0;left=0;bottom=0;right=0;collapsible=0;dropTarget=0;fillColor=none;points=[[0,0.5],[1,0.5]];portConstraint=eastwest;fontSize=16;" vertex="1" parent="wRM7waIHbyNujgvK-kwP-24">
          <mxGeometry y="75" width="299" height="31" as="geometry" />
        </mxCell>
        <mxCell id="wRM7waIHbyNujgvK-kwP-29" value="cdr3_ref" style="shape=partialRectangle;html=1;whiteSpace=wrap;connectable=0;strokeColor=inherit;overflow=hidden;fillColor=#666666;top=0;left=0;bottom=0;right=0;pointerEvents=1;fontSize=12;" vertex="1" parent="wRM7waIHbyNujgvK-kwP-28">
          <mxGeometry width="150" height="31" as="geometry">
            <mxRectangle width="150" height="31" as="alternateBounds" />
          </mxGeometry>
        </mxCell>
        <mxCell id="wRM7waIHbyNujgvK-kwP-30" value="cdr3 reference database" style="shape=partialRectangle;html=1;whiteSpace=wrap;connectable=0;strokeColor=inherit;overflow=hidden;fillColor=#666666;top=0;left=0;bottom=0;right=0;pointerEvents=1;fontSize=12;" vertex="1" parent="wRM7waIHbyNujgvK-kwP-28">
          <mxGeometry x="150" width="149" height="31" as="geometry">
            <mxRectangle width="149" height="31" as="alternateBounds" />
          </mxGeometry>
        </mxCell>
        <mxCell id="wRM7waIHbyNujgvK-kwP-31" value="" style="shape=tableRow;horizontal=0;startSize=0;swimlaneHead=0;swimlaneBody=0;strokeColor=inherit;top=0;left=0;bottom=0;right=0;collapsible=0;dropTarget=0;fillColor=none;points=[[0,0.5],[1,0.5]];portConstraint=eastwest;fontSize=16;" vertex="1" parent="wRM7waIHbyNujgvK-kwP-24">
          <mxGeometry y="106" width="299" height="31" as="geometry" />
        </mxCell>
        <mxCell id="wRM7waIHbyNujgvK-kwP-32" value="ks = c(2, 3, 4)" style="shape=partialRectangle;html=1;whiteSpace=wrap;connectable=0;strokeColor=inherit;overflow=hidden;fillColor=#666666;top=0;left=0;bottom=0;right=0;pointerEvents=1;fontSize=12;" vertex="1" parent="wRM7waIHbyNujgvK-kwP-31">
          <mxGeometry width="150" height="31" as="geometry">
            <mxRectangle width="150" height="31" as="alternateBounds" />
          </mxGeometry>
        </mxCell>
        <mxCell id="wRM7waIHbyNujgvK-kwP-33" value="motif lengths" style="shape=partialRectangle;html=1;whiteSpace=wrap;connectable=0;strokeColor=inherit;overflow=hidden;fillColor=#666666;top=0;left=0;bottom=0;right=0;pointerEvents=1;fontSize=12;" vertex="1" parent="wRM7waIHbyNujgvK-kwP-31">
          <mxGeometry x="150" width="149" height="31" as="geometry">
            <mxRectangle width="149" height="31" as="alternateBounds" />
          </mxGeometry>
        </mxCell>
        <mxCell id="wRM7waIHbyNujgvK-kwP-34" value="" style="shape=tableRow;horizontal=0;startSize=0;swimlaneHead=0;swimlaneBody=0;strokeColor=inherit;top=0;left=0;bottom=0;right=0;collapsible=0;dropTarget=0;fillColor=none;points=[[0,0.5],[1,0.5]];portConstraint=eastwest;fontSize=16;" vertex="1" parent="wRM7waIHbyNujgvK-kwP-24">
          <mxGeometry y="137" width="299" height="30" as="geometry" />
        </mxCell>
        <mxCell id="wRM7waIHbyNujgvK-kwP-35" value="cores = 1" style="shape=partialRectangle;html=1;whiteSpace=wrap;connectable=0;strokeColor=inherit;overflow=hidden;fillColor=#666666;top=0;left=0;bottom=0;right=0;pointerEvents=1;fontSize=12;" vertex="1" parent="wRM7waIHbyNujgvK-kwP-34">
          <mxGeometry width="150" height="30" as="geometry">
            <mxRectangle width="150" height="30" as="alternateBounds" />
          </mxGeometry>
        </mxCell>
        <mxCell id="wRM7waIHbyNujgvK-kwP-36" value="cpu cores" style="shape=partialRectangle;html=1;whiteSpace=wrap;connectable=0;strokeColor=inherit;overflow=hidden;fillColor=#666666;top=0;left=0;bottom=0;right=0;pointerEvents=1;fontSize=12;" vertex="1" parent="wRM7waIHbyNujgvK-kwP-34">
          <mxGeometry x="150" width="149" height="30" as="geometry">
            <mxRectangle width="149" height="30" as="alternateBounds" />
          </mxGeometry>
        </mxCell>
        <mxCell id="wRM7waIHbyNujgvK-kwP-37" value="" style="shape=tableRow;horizontal=0;startSize=0;swimlaneHead=0;swimlaneBody=0;strokeColor=inherit;top=0;left=0;bottom=0;right=0;collapsible=0;dropTarget=0;fillColor=none;points=[[0,0.5],[1,0.5]];portConstraint=eastwest;fontSize=16;" vertex="1" parent="wRM7waIHbyNujgvK-kwP-24">
          <mxGeometry y="167" width="299" height="31" as="geometry" />
        </mxCell>
        <mxCell id="wRM7waIHbyNujgvK-kwP-38" value="( B = 1000 )" style="shape=partialRectangle;html=1;whiteSpace=wrap;connectable=0;strokeColor=inherit;overflow=hidden;fillColor=#666666;top=0;left=0;bottom=0;right=0;pointerEvents=1;fontSize=12;" vertex="1" parent="wRM7waIHbyNujgvK-kwP-37">
          <mxGeometry width="150" height="31" as="geometry">
            <mxRectangle width="150" height="31" as="alternateBounds" />
          </mxGeometry>
        </mxCell>
        <mxCell id="wRM7waIHbyNujgvK-kwP-39" value="simulation depth" style="shape=partialRectangle;html=1;whiteSpace=wrap;connectable=0;strokeColor=inherit;overflow=hidden;fillColor=#666666;top=0;left=0;bottom=0;right=0;pointerEvents=1;fontSize=12;" vertex="1" parent="wRM7waIHbyNujgvK-kwP-37">
          <mxGeometry x="150" width="149" height="31" as="geometry">
            <mxRectangle width="149" height="31" as="alternateBounds" />
          </mxGeometry>
        </mxCell>
        <mxCell id="wRM7waIHbyNujgvK-kwP-40" value="" style="shape=tableRow;horizontal=0;startSize=0;swimlaneHead=0;swimlaneBody=0;strokeColor=inherit;top=0;left=0;bottom=0;right=0;collapsible=0;dropTarget=0;fillColor=none;points=[[0,0.5],[1,0.5]];portConstraint=eastwest;fontSize=16;" vertex="1" parent="wRM7waIHbyNujgvK-kwP-24">
          <mxGeometry y="198" width="299" height="29" as="geometry" />
        </mxCell>
        <mxCell id="wRM7waIHbyNujgvK-kwP-41" value="( global_max_dist = 1)" style="shape=partialRectangle;html=1;whiteSpace=wrap;connectable=0;strokeColor=inherit;overflow=hidden;fillColor=#666666;top=0;left=0;bottom=0;right=0;pointerEvents=1;fontSize=12;" vertex="1" parent="wRM7waIHbyNujgvK-kwP-40">
          <mxGeometry width="150" height="29" as="geometry">
            <mxRectangle width="150" height="29" as="alternateBounds" />
          </mxGeometry>
        </mxCell>
        <mxCell id="wRM7waIHbyNujgvK-kwP-42" value="max hamming distance" style="shape=partialRectangle;html=1;whiteSpace=wrap;connectable=0;strokeColor=inherit;overflow=hidden;fillColor=#666666;top=0;left=0;bottom=0;right=0;pointerEvents=1;fontSize=12;" vertex="1" parent="wRM7waIHbyNujgvK-kwP-40">
          <mxGeometry x="150" width="149" height="29" as="geometry">
            <mxRectangle width="149" height="29" as="alternateBounds" />
          </mxGeometry>
        </mxCell>
        <mxCell id="wRM7waIHbyNujgvK-kwP-43" value="" style="shape=tableRow;horizontal=0;startSize=0;swimlaneHead=0;swimlaneBody=0;strokeColor=inherit;top=0;left=0;bottom=0;right=0;collapsible=0;dropTarget=0;fillColor=none;points=[[0,0.5],[1,0.5]];portConstraint=eastwest;fontSize=16;" vertex="1" parent="wRM7waIHbyNujgvK-kwP-24">
          <mxGeometry y="227" width="299" height="32" as="geometry" />
        </mxCell>
        <mxCell id="wRM7waIHbyNujgvK-kwP-44" value="( local_min_p = 0.05 )" style="shape=partialRectangle;html=1;whiteSpace=wrap;connectable=0;strokeColor=inherit;overflow=hidden;fillColor=#666666;top=0;left=0;bottom=0;right=0;pointerEvents=1;fontSize=12;" vertex="1" parent="wRM7waIHbyNujgvK-kwP-43">
          <mxGeometry width="150" height="32" as="geometry">
            <mxRectangle width="150" height="32" as="alternateBounds" />
          </mxGeometry>
        </mxCell>
        <mxCell id="wRM7waIHbyNujgvK-kwP-45" value="max random prob cutoff&lt;br&gt;(&quot;local_max_p&quot; ?)" style="shape=partialRectangle;html=1;whiteSpace=wrap;connectable=0;strokeColor=inherit;overflow=hidden;fillColor=#666666;top=0;left=0;bottom=0;right=0;pointerEvents=1;fontSize=12;" vertex="1" parent="wRM7waIHbyNujgvK-kwP-43">
          <mxGeometry x="150" width="149" height="32" as="geometry">
            <mxRectangle width="149" height="32" as="alternateBounds" />
          </mxGeometry>
        </mxCell>
        <mxCell id="wRM7waIHbyNujgvK-kwP-46" value="" style="shape=tableRow;horizontal=0;startSize=0;swimlaneHead=0;swimlaneBody=0;strokeColor=inherit;top=0;left=0;bottom=0;right=0;collapsible=0;dropTarget=0;fillColor=none;points=[[0,0.5],[1,0.5]];portConstraint=eastwest;fontSize=16;" vertex="1" parent="wRM7waIHbyNujgvK-kwP-24">
          <mxGeometry y="259" width="299" height="32" as="geometry" />
        </mxCell>
        <mxCell id="wRM7waIHbyNujgvK-kwP-47" value="( local_min_ove = 2 )" style="shape=partialRectangle;html=1;whiteSpace=wrap;connectable=0;strokeColor=inherit;overflow=hidden;fillColor=#666666;top=0;left=0;bottom=0;right=0;pointerEvents=1;fontSize=12;" vertex="1" parent="wRM7waIHbyNujgvK-kwP-46">
          <mxGeometry width="150" height="32" as="geometry">
            <mxRectangle width="150" height="32" as="alternateBounds" />
          </mxGeometry>
        </mxCell>
        <mxCell id="wRM7waIHbyNujgvK-kwP-48" value="min fold enrichment" style="shape=partialRectangle;html=1;whiteSpace=wrap;connectable=0;strokeColor=inherit;overflow=hidden;fillColor=#666666;top=0;left=0;bottom=0;right=0;pointerEvents=1;fontSize=12;" vertex="1" parent="wRM7waIHbyNujgvK-kwP-46">
          <mxGeometry x="150" width="149" height="32" as="geometry">
            <mxRectangle width="149" height="32" as="alternateBounds" />
          </mxGeometry>
        </mxCell>
        <mxCell id="wRM7waIHbyNujgvK-kwP-49" value="" style="shape=tableRow;horizontal=0;startSize=0;swimlaneHead=0;swimlaneBody=0;strokeColor=inherit;top=0;left=0;bottom=0;right=0;collapsible=0;dropTarget=0;fillColor=none;points=[[0,0.5],[1,0.5]];portConstraint=eastwest;fontSize=16;" vertex="1" parent="wRM7waIHbyNujgvK-kwP-24">
          <mxGeometry y="291" width="299" height="32" as="geometry" />
        </mxCell>
        <mxCell id="wRM7waIHbyNujgvK-kwP-50" value="( local_min_o = 3 )" style="shape=partialRectangle;html=1;whiteSpace=wrap;connectable=0;strokeColor=inherit;overflow=hidden;fillColor=#666666;top=0;left=0;bottom=0;right=0;pointerEvents=1;fontSize=12;" vertex="1" parent="wRM7waIHbyNujgvK-kwP-49">
          <mxGeometry width="150" height="32" as="geometry">
            <mxRectangle width="150" height="32" as="alternateBounds" />
          </mxGeometry>
        </mxCell>
        <mxCell id="wRM7waIHbyNujgvK-kwP-51" value="min motif observations" style="shape=partialRectangle;html=1;whiteSpace=wrap;connectable=0;strokeColor=inherit;overflow=hidden;fillColor=#666666;top=0;left=0;bottom=0;right=0;pointerEvents=1;fontSize=12;" vertex="1" parent="wRM7waIHbyNujgvK-kwP-49">
          <mxGeometry x="150" width="149" height="32" as="geometry">
            <mxRectangle width="149" height="32" as="alternateBounds" />
          </mxGeometry>
        </mxCell>
        <mxCell id="wRM7waIHbyNujgvK-kwP-52" value="" style="shape=tableRow;horizontal=0;startSize=0;swimlaneHead=0;swimlaneBody=0;strokeColor=inherit;top=0;left=0;bottom=0;right=0;collapsible=0;dropTarget=0;fillColor=none;points=[[0,0.5],[1,0.5]];portConstraint=eastwest;fontSize=16;" vertex="1" parent="wRM7waIHbyNujgvK-kwP-24">
          <mxGeometry y="323" width="299" height="35" as="geometry" />
        </mxCell>
        <mxCell id="wRM7waIHbyNujgvK-kwP-53" value="( trim_flanks = FALSE )" style="shape=partialRectangle;html=1;whiteSpace=wrap;connectable=0;strokeColor=inherit;overflow=hidden;fillColor=#666666;top=0;left=0;bottom=0;right=0;pointerEvents=1;fontSize=12;" vertex="1" parent="wRM7waIHbyNujgvK-kwP-52">
          <mxGeometry width="150" height="35" as="geometry">
            <mxRectangle width="150" height="35" as="alternateBounds" />
          </mxGeometry>
        </mxCell>
        <mxCell id="wRM7waIHbyNujgvK-kwP-54" value="cut off aa&lt;br&gt;(replace? flank_size = 0)" style="shape=partialRectangle;html=1;whiteSpace=wrap;connectable=0;strokeColor=inherit;overflow=hidden;fillColor=#666666;top=0;left=0;bottom=0;right=0;pointerEvents=1;fontSize=12;" vertex="1" parent="wRM7waIHbyNujgvK-kwP-52">
          <mxGeometry x="150" width="149" height="35" as="geometry">
            <mxRectangle width="149" height="35" as="alternateBounds" />
          </mxGeometry>
        </mxCell>
        <mxCell id="wRM7waIHbyNujgvK-kwP-55" value="" style="shape=tableRow;horizontal=0;startSize=0;swimlaneHead=0;swimlaneBody=0;strokeColor=inherit;top=0;left=0;bottom=0;right=0;collapsible=0;dropTarget=0;fillColor=none;points=[[0,0.5],[1,0.5]];portConstraint=eastwest;fontSize=16;" vertex="1" parent="wRM7waIHbyNujgvK-kwP-24">
          <mxGeometry y="358" width="299" height="33" as="geometry" />
        </mxCell>
        <mxCell id="wRM7waIHbyNujgvK-kwP-56" value="( flank_size = 3 )" style="shape=partialRectangle;html=1;whiteSpace=wrap;connectable=0;strokeColor=inherit;overflow=hidden;fillColor=#666666;top=0;left=0;bottom=0;right=0;pointerEvents=1;fontSize=12;" vertex="1" parent="wRM7waIHbyNujgvK-kwP-55">
          <mxGeometry width="150" height="33" as="geometry">
            <mxRectangle width="150" height="33" as="alternateBounds" />
          </mxGeometry>
        </mxCell>
        <mxCell id="wRM7waIHbyNujgvK-kwP-57" value="aa left/right cut off" style="shape=partialRectangle;html=1;whiteSpace=wrap;connectable=0;strokeColor=inherit;overflow=hidden;fillColor=#666666;top=0;left=0;bottom=0;right=0;pointerEvents=1;fontSize=12;" vertex="1" parent="wRM7waIHbyNujgvK-kwP-55">
          <mxGeometry x="150" width="149" height="33" as="geometry">
            <mxRectangle width="149" height="33" as="alternateBounds" />
          </mxGeometry>
        </mxCell>
        <mxCell id="wRM7waIHbyNujgvK-kwP-58" value="" style="shape=tableRow;horizontal=0;startSize=0;swimlaneHead=0;swimlaneBody=0;strokeColor=inherit;top=0;left=0;bottom=0;right=0;collapsible=0;dropTarget=0;fillColor=none;points=[[0,0.5],[1,0.5]];portConstraint=eastwest;fontSize=16;" vertex="1" parent="wRM7waIHbyNujgvK-kwP-24">
          <mxGeometry y="391" width="299" height="31" as="geometry" />
        </mxCell>
        <mxCell id="wRM7waIHbyNujgvK-kwP-59" value="( global_pairs = NULL )" style="shape=partialRectangle;html=1;whiteSpace=wrap;connectable=0;strokeColor=inherit;overflow=hidden;fillColor=#666666;top=0;left=0;bottom=0;right=0;pointerEvents=1;fontSize=12;" vertex="1" parent="wRM7waIHbyNujgvK-kwP-58">
          <mxGeometry width="150" height="31" as="geometry">
            <mxRectangle width="150" height="31" as="alternateBounds" />
          </mxGeometry>
        </mxCell>
        <mxCell id="wRM7waIHbyNujgvK-kwP-60" value="precomputed global pairs (?)" style="shape=partialRectangle;html=1;whiteSpace=wrap;connectable=0;strokeColor=inherit;overflow=hidden;fillColor=#666666;top=0;left=0;bottom=0;right=0;pointerEvents=1;fontSize=12;" vertex="1" parent="wRM7waIHbyNujgvK-kwP-58">
          <mxGeometry x="150" width="149" height="31" as="geometry">
            <mxRectangle width="149" height="31" as="alternateBounds" />
          </mxGeometry>
        </mxCell>
        <mxCell id="wRM7waIHbyNujgvK-kwP-61" value="" style="shape=tableRow;horizontal=0;startSize=0;swimlaneHead=0;swimlaneBody=0;strokeColor=inherit;top=0;left=0;bottom=0;right=0;collapsible=0;dropTarget=0;fillColor=none;points=[[0,0.5],[1,0.5]];portConstraint=eastwest;fontSize=16;" vertex="1" parent="wRM7waIHbyNujgvK-kwP-24">
          <mxGeometry y="422" width="299" height="32" as="geometry" />
        </mxCell>
        <mxCell id="wRM7waIHbyNujgvK-kwP-62" value="( low_mem = FALSE )" style="shape=partialRectangle;html=1;whiteSpace=wrap;connectable=0;strokeColor=inherit;overflow=hidden;fillColor=#666666;top=0;left=0;bottom=0;right=0;pointerEvents=1;fontSize=12;" vertex="1" parent="wRM7waIHbyNujgvK-kwP-61">
          <mxGeometry width="150" height="32" as="geometry">
            <mxRectangle width="150" height="32" as="alternateBounds" />
          </mxGeometry>
        </mxCell>
        <mxCell id="wRM7waIHbyNujgvK-kwP-63" value="slow looping with lower memory footpring" style="shape=partialRectangle;html=1;whiteSpace=wrap;connectable=0;strokeColor=inherit;overflow=hidden;fillColor=#666666;top=0;left=0;bottom=0;right=0;pointerEvents=1;fontSize=12;" vertex="1" parent="wRM7waIHbyNujgvK-kwP-61">
          <mxGeometry x="150" width="149" height="32" as="geometry">
            <mxRectangle width="149" height="32" as="alternateBounds" />
          </mxGeometry>
        </mxCell>
        <mxCell id="wRM7waIHbyNujgvK-kwP-64" value="return" style="shape=table;startSize=43;container=1;collapsible=0;childLayout=tableLayout;fontSize=16;verticalAlign=middle;fillColor=#666666;" vertex="1" parent="wRM7waIHbyNujgvK-kwP-1">
          <mxGeometry x="814" y="227" width="299" height="143.42105263157902" as="geometry" />
        </mxCell>
        <mxCell id="wRM7waIHbyNujgvK-kwP-65" value="" style="shape=tableRow;horizontal=0;startSize=0;swimlaneHead=0;swimlaneBody=0;strokeColor=inherit;top=0;left=0;bottom=0;right=0;collapsible=0;dropTarget=0;fillColor=none;points=[[0,0.5],[1,0.5]];portConstraint=eastwest;fontSize=16;" vertex="1" parent="wRM7waIHbyNujgvK-kwP-64">
          <mxGeometry y="43" width="299" height="32" as="geometry" />
        </mxCell>
        <mxCell id="wRM7waIHbyNujgvK-kwP-66" value="local_pairs" style="shape=partialRectangle;html=1;whiteSpace=wrap;connectable=0;strokeColor=inherit;overflow=hidden;fillColor=#666666;top=0;left=0;bottom=0;right=0;pointerEvents=1;fontSize=12;" vertex="1" parent="wRM7waIHbyNujgvK-kwP-65">
          <mxGeometry width="150" height="32" as="geometry">
            <mxRectangle width="150" height="32" as="alternateBounds" />
          </mxGeometry>
        </mxCell>
        <mxCell id="wRM7waIHbyNujgvK-kwP-67" value="local cdr3 pairs" style="shape=partialRectangle;html=1;whiteSpace=wrap;connectable=0;strokeColor=inherit;overflow=hidden;fillColor=#666666;top=0;left=0;bottom=0;right=0;pointerEvents=1;fontSize=12;" vertex="1" parent="wRM7waIHbyNujgvK-kwP-65">
          <mxGeometry x="150" width="149" height="32" as="geometry">
            <mxRectangle width="149" height="32" as="alternateBounds" />
          </mxGeometry>
        </mxCell>
        <mxCell id="wRM7waIHbyNujgvK-kwP-68" value="" style="shape=tableRow;horizontal=0;startSize=0;swimlaneHead=0;swimlaneBody=0;strokeColor=inherit;top=0;left=0;bottom=0;right=0;collapsible=0;dropTarget=0;fillColor=none;points=[[0,0.5],[1,0.5]];portConstraint=eastwest;fontSize=16;" vertex="1" parent="wRM7waIHbyNujgvK-kwP-64">
          <mxGeometry y="75" width="299" height="36" as="geometry" />
        </mxCell>
        <mxCell id="wRM7waIHbyNujgvK-kwP-69" value="global_pairs" style="shape=partialRectangle;html=1;whiteSpace=wrap;connectable=0;strokeColor=inherit;overflow=hidden;fillColor=#666666;top=0;left=0;bottom=0;right=0;pointerEvents=1;fontSize=12;" vertex="1" parent="wRM7waIHbyNujgvK-kwP-68">
          <mxGeometry width="150" height="36" as="geometry">
            <mxRectangle width="150" height="36" as="alternateBounds" />
          </mxGeometry>
        </mxCell>
        <mxCell id="wRM7waIHbyNujgvK-kwP-70" value="global cdr3 pairs" style="shape=partialRectangle;html=1;whiteSpace=wrap;connectable=0;strokeColor=inherit;overflow=hidden;fillColor=#666666;top=0;left=0;bottom=0;right=0;pointerEvents=1;fontSize=12;" vertex="1" parent="wRM7waIHbyNujgvK-kwP-68">
          <mxGeometry x="150" width="149" height="36" as="geometry">
            <mxRectangle width="149" height="36" as="alternateBounds" />
          </mxGeometry>
        </mxCell>
        <mxCell id="wRM7waIHbyNujgvK-kwP-71" value="" style="shape=tableRow;horizontal=0;startSize=0;swimlaneHead=0;swimlaneBody=0;strokeColor=inherit;top=0;left=0;bottom=0;right=0;collapsible=0;dropTarget=0;fillColor=none;points=[[0,0.5],[1,0.5]];portConstraint=eastwest;fontSize=16;" vertex="1" parent="wRM7waIHbyNujgvK-kwP-64">
          <mxGeometry y="111" width="299" height="32" as="geometry" />
        </mxCell>
        <mxCell id="wRM7waIHbyNujgvK-kwP-72" value="motif_enrichment" style="shape=partialRectangle;html=1;whiteSpace=wrap;connectable=0;strokeColor=inherit;overflow=hidden;fillColor=#666666;top=0;left=0;bottom=0;right=0;pointerEvents=1;fontSize=12;" vertex="1" parent="wRM7waIHbyNujgvK-kwP-71">
          <mxGeometry width="150" height="32" as="geometry">
            <mxRectangle width="150" height="32" as="alternateBounds" />
          </mxGeometry>
        </mxCell>
        <mxCell id="wRM7waIHbyNujgvK-kwP-73" value="indexed input data" style="shape=partialRectangle;html=1;whiteSpace=wrap;connectable=0;strokeColor=inherit;overflow=hidden;fillColor=#666666;top=0;left=0;bottom=0;right=0;pointerEvents=1;fontSize=12;" vertex="1" parent="wRM7waIHbyNujgvK-kwP-71">
          <mxGeometry x="150" width="149" height="32" as="geometry">
            <mxRectangle width="149" height="32" as="alternateBounds" />
          </mxGeometry>
        </mxCell>
      </root>
    </mxGraphModel>
  </diagram>
  <diagram name="util_v1_v2.R" id="PVrGX_41cvrsTQhqDoxl">
    <mxGraphModel dx="1572" dy="747" grid="0" gridSize="10" guides="1" tooltips="1" connect="1" arrows="1" fold="1" page="1" pageScale="1" pageWidth="1169" pageHeight="827" background="#1C1C1C" math="0" shadow="0">
      <root>
        <mxCell id="sZnHJTsr2i137iXFdhag-0" />
        <mxCell id="sZnHJTsr2i137iXFdhag-1" parent="sZnHJTsr2i137iXFdhag-0" />
        <mxCell id="sZnHJTsr2i137iXFdhag-2" value="&lt;font style=&quot;font-size: 20px;&quot;&gt;util_v1_v2.R&lt;/font&gt;" style="swimlane;fontStyle=0;childLayout=stackLayout;horizontal=1;startSize=30;horizontalStack=0;resizeParent=1;resizeParentMax=0;resizeLast=0;collapsible=1;marginBottom=0;whiteSpace=wrap;html=1;swimlaneFillColor=none;fillStyle=auto;fillColor=#666666;shadow=0;" vertex="1" parent="sZnHJTsr2i137iXFdhag-1">
          <mxGeometry x="543.5" y="75" width="140" height="90" as="geometry">
            <mxRectangle x="99" y="41" width="68" height="30" as="alternateBounds" />
          </mxGeometry>
        </mxCell>
        <mxCell id="sZnHJTsr2i137iXFdhag-3" value="gliph helper functions" style="text;strokeColor=none;fillColor=#666666;align=left;verticalAlign=middle;spacingLeft=4;spacingRight=4;overflow=hidden;points=[[0,0.5],[1,0.5]];portConstraint=eastwest;rotatable=0;whiteSpace=wrap;html=1;shadow=0;" vertex="1" parent="sZnHJTsr2i137iXFdhag-2">
          <mxGeometry y="30" width="140" height="30" as="geometry" />
        </mxCell>
        <mxCell id="sZnHJTsr2i137iXFdhag-4" value="different input &amp;amp; return" style="text;strokeColor=none;fillColor=#666666;align=left;verticalAlign=middle;spacingLeft=4;spacingRight=4;overflow=hidden;points=[[0,0.5],[1,0.5]];portConstraint=eastwest;rotatable=0;whiteSpace=wrap;html=1;shadow=0;" vertex="1" parent="sZnHJTsr2i137iXFdhag-2">
          <mxGeometry y="60" width="140" height="30" as="geometry" />
        </mxCell>
        <mxCell id="sZnHJTsr2i137iXFdhag-5" value="get_control()" style="shape=table;startSize=37;container=1;collapsible=0;childLayout=tableLayout;fontSize=16;fillColor=#666666;" vertex="1" parent="sZnHJTsr2i137iXFdhag-1">
          <mxGeometry x="106" y="226" width="313" height="159.50724637681208" as="geometry" />
        </mxCell>
        <mxCell id="sZnHJTsr2i137iXFdhag-6" value="" style="shape=tableRow;horizontal=0;startSize=0;swimlaneHead=0;swimlaneBody=0;strokeColor=inherit;top=0;left=0;bottom=0;right=0;collapsible=0;dropTarget=0;fillColor=none;points=[[0,0.5],[1,0.5]];portConstraint=eastwest;fontSize=16;" vertex="1" parent="sZnHJTsr2i137iXFdhag-5">
          <mxGeometry y="37" width="313" height="41" as="geometry" />
        </mxCell>
        <mxCell id="sZnHJTsr2i137iXFdhag-7" value="in" style="shape=partialRectangle;html=1;whiteSpace=wrap;connectable=0;strokeColor=inherit;overflow=hidden;fillColor=#666666;top=0;left=0;bottom=0;right=0;pointerEvents=1;fontSize=12;" vertex="1" parent="sZnHJTsr2i137iXFdhag-6">
          <mxGeometry width="160" height="41" as="geometry">
            <mxRectangle width="160" height="41" as="alternateBounds" />
          </mxGeometry>
        </mxCell>
        <mxCell id="sZnHJTsr2i137iXFdhag-8" value="control" style="shape=partialRectangle;html=1;whiteSpace=wrap;connectable=0;strokeColor=inherit;overflow=hidden;fillColor=#666666;top=0;left=0;bottom=0;right=0;pointerEvents=1;fontSize=12;" vertex="1" parent="sZnHJTsr2i137iXFdhag-6">
          <mxGeometry x="160" width="153" height="41" as="geometry">
            <mxRectangle width="153" height="41" as="alternateBounds" />
          </mxGeometry>
        </mxCell>
        <mxCell id="sZnHJTsr2i137iXFdhag-21" value="" style="shape=tableRow;horizontal=0;startSize=0;swimlaneHead=0;swimlaneBody=0;strokeColor=inherit;top=0;left=0;bottom=0;right=0;collapsible=0;dropTarget=0;fillColor=none;points=[[0,0.5],[1,0.5]];portConstraint=eastwest;fontSize=16;" vertex="1" parent="sZnHJTsr2i137iXFdhag-5">
          <mxGeometry y="78" width="313" height="41" as="geometry" />
        </mxCell>
        <mxCell id="sZnHJTsr2i137iXFdhag-22" value="filter" style="shape=partialRectangle;html=1;whiteSpace=wrap;connectable=0;strokeColor=inherit;overflow=hidden;fillColor=#666666;top=0;left=0;bottom=0;right=0;pointerEvents=1;fontSize=12;" vertex="1" parent="sZnHJTsr2i137iXFdhag-21">
          <mxGeometry width="160" height="41" as="geometry">
            <mxRectangle width="160" height="41" as="alternateBounds" />
          </mxGeometry>
        </mxCell>
        <mxCell id="sZnHJTsr2i137iXFdhag-23" value="replace by default&lt;br&gt;sort" style="shape=partialRectangle;html=1;whiteSpace=wrap;connectable=0;strokeColor=inherit;overflow=hidden;fillColor=#666666;top=0;left=0;bottom=0;right=0;pointerEvents=1;fontSize=12;" vertex="1" parent="sZnHJTsr2i137iXFdhag-21">
          <mxGeometry x="160" width="153" height="41" as="geometry">
            <mxRectangle width="153" height="41" as="alternateBounds" />
          </mxGeometry>
        </mxCell>
        <mxCell id="9Q9myNXnQowxTMAH6O6V-0" value="" style="shape=tableRow;horizontal=0;startSize=0;swimlaneHead=0;swimlaneBody=0;strokeColor=inherit;top=0;left=0;bottom=0;right=0;collapsible=0;dropTarget=0;fillColor=none;points=[[0,0.5],[1,0.5]];portConstraint=eastwest;fontSize=16;" vertex="1" parent="sZnHJTsr2i137iXFdhag-5">
          <mxGeometry y="119" width="313" height="41" as="geometry" />
        </mxCell>
        <mxCell id="9Q9myNXnQowxTMAH6O6V-1" value="out" style="shape=partialRectangle;html=1;whiteSpace=wrap;connectable=0;strokeColor=inherit;overflow=hidden;fillColor=#666666;top=0;left=0;bottom=0;right=0;pointerEvents=1;fontSize=12;" vertex="1" parent="9Q9myNXnQowxTMAH6O6V-0">
          <mxGeometry width="160" height="41" as="geometry">
            <mxRectangle width="160" height="41" as="alternateBounds" />
          </mxGeometry>
        </mxCell>
        <mxCell id="9Q9myNXnQowxTMAH6O6V-2" value="cleaned control" style="shape=partialRectangle;html=1;whiteSpace=wrap;connectable=0;strokeColor=inherit;overflow=hidden;fillColor=#666666;top=0;left=0;bottom=0;right=0;pointerEvents=1;fontSize=12;" vertex="1" parent="9Q9myNXnQowxTMAH6O6V-0">
          <mxGeometry x="160" width="153" height="41" as="geometry">
            <mxRectangle width="153" height="41" as="alternateBounds" />
          </mxGeometry>
        </mxCell>
        <mxCell id="9Q9myNXnQowxTMAH6O6V-3" value="get_local_pair()" style="shape=table;startSize=37;container=1;collapsible=0;childLayout=tableLayout;fontSize=16;fillColor=#666666;" vertex="1" parent="sZnHJTsr2i137iXFdhag-1">
          <mxGeometry x="457" y="224" width="313" height="159.50724637681208" as="geometry" />
        </mxCell>
        <mxCell id="9Q9myNXnQowxTMAH6O6V-4" value="" style="shape=tableRow;horizontal=0;startSize=0;swimlaneHead=0;swimlaneBody=0;strokeColor=inherit;top=0;left=0;bottom=0;right=0;collapsible=0;dropTarget=0;fillColor=none;points=[[0,0.5],[1,0.5]];portConstraint=eastwest;fontSize=16;" vertex="1" parent="9Q9myNXnQowxTMAH6O6V-3">
          <mxGeometry y="37" width="313" height="41" as="geometry" />
        </mxCell>
        <mxCell id="9Q9myNXnQowxTMAH6O6V-5" value="in" style="shape=partialRectangle;html=1;whiteSpace=wrap;connectable=0;strokeColor=inherit;overflow=hidden;fillColor=#666666;top=0;left=0;bottom=0;right=0;pointerEvents=1;fontSize=12;" vertex="1" parent="9Q9myNXnQowxTMAH6O6V-4">
          <mxGeometry width="160" height="41" as="geometry">
            <mxRectangle width="160" height="41" as="alternateBounds" />
          </mxGeometry>
        </mxCell>
        <mxCell id="9Q9myNXnQowxTMAH6O6V-6" value="cdr3 seq, motifs" style="shape=partialRectangle;html=1;whiteSpace=wrap;connectable=0;strokeColor=inherit;overflow=hidden;fillColor=#666666;top=0;left=0;bottom=0;right=0;pointerEvents=1;fontSize=12;" vertex="1" parent="9Q9myNXnQowxTMAH6O6V-4">
          <mxGeometry x="160" width="153" height="41" as="geometry">
            <mxRectangle width="153" height="41" as="alternateBounds" />
          </mxGeometry>
        </mxCell>
        <mxCell id="9Q9myNXnQowxTMAH6O6V-7" value="" style="shape=tableRow;horizontal=0;startSize=0;swimlaneHead=0;swimlaneBody=0;strokeColor=inherit;top=0;left=0;bottom=0;right=0;collapsible=0;dropTarget=0;fillColor=none;points=[[0,0.5],[1,0.5]];portConstraint=eastwest;fontSize=16;" vertex="1" parent="9Q9myNXnQowxTMAH6O6V-3">
          <mxGeometry y="78" width="313" height="41" as="geometry" />
        </mxCell>
        <mxCell id="9Q9myNXnQowxTMAH6O6V-8" value="filter" style="shape=partialRectangle;html=1;whiteSpace=wrap;connectable=0;strokeColor=inherit;overflow=hidden;fillColor=#666666;top=0;left=0;bottom=0;right=0;pointerEvents=1;fontSize=12;" vertex="1" parent="9Q9myNXnQowxTMAH6O6V-7">
          <mxGeometry width="160" height="41" as="geometry">
            <mxRectangle width="160" height="41" as="alternateBounds" />
          </mxGeometry>
        </mxCell>
        <mxCell id="9Q9myNXnQowxTMAH6O6V-9" value="find enriched motifs" style="shape=partialRectangle;html=1;whiteSpace=wrap;connectable=0;strokeColor=inherit;overflow=hidden;fillColor=#666666;top=0;left=0;bottom=0;right=0;pointerEvents=1;fontSize=12;" vertex="1" parent="9Q9myNXnQowxTMAH6O6V-7">
          <mxGeometry x="160" width="153" height="41" as="geometry">
            <mxRectangle width="153" height="41" as="alternateBounds" />
          </mxGeometry>
        </mxCell>
        <mxCell id="9Q9myNXnQowxTMAH6O6V-10" value="" style="shape=tableRow;horizontal=0;startSize=0;swimlaneHead=0;swimlaneBody=0;strokeColor=inherit;top=0;left=0;bottom=0;right=0;collapsible=0;dropTarget=0;fillColor=none;points=[[0,0.5],[1,0.5]];portConstraint=eastwest;fontSize=16;" vertex="1" parent="9Q9myNXnQowxTMAH6O6V-3">
          <mxGeometry y="119" width="313" height="41" as="geometry" />
        </mxCell>
        <mxCell id="9Q9myNXnQowxTMAH6O6V-11" value="out" style="shape=partialRectangle;html=1;whiteSpace=wrap;connectable=0;strokeColor=inherit;overflow=hidden;fillColor=#666666;top=0;left=0;bottom=0;right=0;pointerEvents=1;fontSize=12;" vertex="1" parent="9Q9myNXnQowxTMAH6O6V-10">
          <mxGeometry width="160" height="41" as="geometry">
            <mxRectangle width="160" height="41" as="alternateBounds" />
          </mxGeometry>
        </mxCell>
        <mxCell id="9Q9myNXnQowxTMAH6O6V-12" value="local pairs" style="shape=partialRectangle;html=1;whiteSpace=wrap;connectable=0;strokeColor=inherit;overflow=hidden;fillColor=#666666;top=0;left=0;bottom=0;right=0;pointerEvents=1;fontSize=12;" vertex="1" parent="9Q9myNXnQowxTMAH6O6V-10">
          <mxGeometry x="160" width="153" height="41" as="geometry">
            <mxRectangle width="153" height="41" as="alternateBounds" />
          </mxGeometry>
        </mxCell>
        <mxCell id="9Q9myNXnQowxTMAH6O6V-13" value="get_global_pairs/mem()" style="shape=table;startSize=37;container=1;collapsible=0;childLayout=tableLayout;fontSize=16;fillColor=#666666;" vertex="1" parent="sZnHJTsr2i137iXFdhag-1">
          <mxGeometry x="808" y="226" width="313" height="159.50724637681208" as="geometry" />
        </mxCell>
        <mxCell id="9Q9myNXnQowxTMAH6O6V-14" value="" style="shape=tableRow;horizontal=0;startSize=0;swimlaneHead=0;swimlaneBody=0;strokeColor=inherit;top=0;left=0;bottom=0;right=0;collapsible=0;dropTarget=0;fillColor=none;points=[[0,0.5],[1,0.5]];portConstraint=eastwest;fontSize=16;" vertex="1" parent="9Q9myNXnQowxTMAH6O6V-13">
          <mxGeometry y="37" width="313" height="41" as="geometry" />
        </mxCell>
        <mxCell id="9Q9myNXnQowxTMAH6O6V-15" value="in" style="shape=partialRectangle;html=1;whiteSpace=wrap;connectable=0;strokeColor=inherit;overflow=hidden;fillColor=#666666;top=0;left=0;bottom=0;right=0;pointerEvents=1;fontSize=12;" vertex="1" parent="9Q9myNXnQowxTMAH6O6V-14">
          <mxGeometry width="160" height="41" as="geometry">
            <mxRectangle width="160" height="41" as="alternateBounds" />
          </mxGeometry>
        </mxCell>
        <mxCell id="9Q9myNXnQowxTMAH6O6V-16" value="cdr3 seq, global_max_dist" style="shape=partialRectangle;html=1;whiteSpace=wrap;connectable=0;strokeColor=inherit;overflow=hidden;fillColor=#666666;top=0;left=0;bottom=0;right=0;pointerEvents=1;fontSize=12;" vertex="1" parent="9Q9myNXnQowxTMAH6O6V-14">
          <mxGeometry x="160" width="153" height="41" as="geometry">
            <mxRectangle width="153" height="41" as="alternateBounds" />
          </mxGeometry>
        </mxCell>
        <mxCell id="9Q9myNXnQowxTMAH6O6V-17" value="" style="shape=tableRow;horizontal=0;startSize=0;swimlaneHead=0;swimlaneBody=0;strokeColor=inherit;top=0;left=0;bottom=0;right=0;collapsible=0;dropTarget=0;fillColor=none;points=[[0,0.5],[1,0.5]];portConstraint=eastwest;fontSize=16;" vertex="1" parent="9Q9myNXnQowxTMAH6O6V-13">
          <mxGeometry y="78" width="313" height="41" as="geometry" />
        </mxCell>
        <mxCell id="9Q9myNXnQowxTMAH6O6V-18" value="filter" style="shape=partialRectangle;html=1;whiteSpace=wrap;connectable=0;strokeColor=inherit;overflow=hidden;fillColor=#666666;top=0;left=0;bottom=0;right=0;pointerEvents=1;fontSize=12;" vertex="1" parent="9Q9myNXnQowxTMAH6O6V-17">
          <mxGeometry width="160" height="41" as="geometry">
            <mxRectangle width="160" height="41" as="alternateBounds" />
          </mxGeometry>
        </mxCell>
        <mxCell id="9Q9myNXnQowxTMAH6O6V-19" value="look for global connections" style="shape=partialRectangle;html=1;whiteSpace=wrap;connectable=0;strokeColor=inherit;overflow=hidden;fillColor=#666666;top=0;left=0;bottom=0;right=0;pointerEvents=1;fontSize=12;" vertex="1" parent="9Q9myNXnQowxTMAH6O6V-17">
          <mxGeometry x="160" width="153" height="41" as="geometry">
            <mxRectangle width="153" height="41" as="alternateBounds" />
          </mxGeometry>
        </mxCell>
        <mxCell id="9Q9myNXnQowxTMAH6O6V-20" value="" style="shape=tableRow;horizontal=0;startSize=0;swimlaneHead=0;swimlaneBody=0;strokeColor=inherit;top=0;left=0;bottom=0;right=0;collapsible=0;dropTarget=0;fillColor=none;points=[[0,0.5],[1,0.5]];portConstraint=eastwest;fontSize=16;" vertex="1" parent="9Q9myNXnQowxTMAH6O6V-13">
          <mxGeometry y="119" width="313" height="41" as="geometry" />
        </mxCell>
        <mxCell id="9Q9myNXnQowxTMAH6O6V-21" value="out" style="shape=partialRectangle;html=1;whiteSpace=wrap;connectable=0;strokeColor=inherit;overflow=hidden;fillColor=#666666;top=0;left=0;bottom=0;right=0;pointerEvents=1;fontSize=12;" vertex="1" parent="9Q9myNXnQowxTMAH6O6V-20">
          <mxGeometry width="160" height="41" as="geometry">
            <mxRectangle width="160" height="41" as="alternateBounds" />
          </mxGeometry>
        </mxCell>
        <mxCell id="9Q9myNXnQowxTMAH6O6V-22" value="global pairs" style="shape=partialRectangle;html=1;whiteSpace=wrap;connectable=0;strokeColor=inherit;overflow=hidden;fillColor=#666666;top=0;left=0;bottom=0;right=0;pointerEvents=1;fontSize=12;" vertex="1" parent="9Q9myNXnQowxTMAH6O6V-20">
          <mxGeometry x="160" width="153" height="41" as="geometry">
            <mxRectangle width="153" height="41" as="alternateBounds" />
          </mxGeometry>
        </mxCell>
        <mxCell id="9Q9myNXnQowxTMAH6O6V-61" value="get_chains()" style="shape=table;startSize=37;container=1;collapsible=0;childLayout=tableLayout;fontSize=16;fillColor=#666666;" vertex="1" parent="sZnHJTsr2i137iXFdhag-1">
          <mxGeometry x="106" y="420" width="313" height="159.50724637681208" as="geometry" />
        </mxCell>
        <mxCell id="9Q9myNXnQowxTMAH6O6V-62" value="" style="shape=tableRow;horizontal=0;startSize=0;swimlaneHead=0;swimlaneBody=0;strokeColor=inherit;top=0;left=0;bottom=0;right=0;collapsible=0;dropTarget=0;fillColor=none;points=[[0,0.5],[1,0.5]];portConstraint=eastwest;fontSize=16;" vertex="1" parent="9Q9myNXnQowxTMAH6O6V-61">
          <mxGeometry y="37" width="313" height="41" as="geometry" />
        </mxCell>
        <mxCell id="9Q9myNXnQowxTMAH6O6V-63" value="in" style="shape=partialRectangle;html=1;whiteSpace=wrap;connectable=0;strokeColor=inherit;overflow=hidden;fillColor=#666666;top=0;left=0;bottom=0;right=0;pointerEvents=1;fontSize=12;" vertex="1" parent="9Q9myNXnQowxTMAH6O6V-62">
          <mxGeometry width="160" height="41" as="geometry">
            <mxRectangle width="160" height="41" as="alternateBounds" />
          </mxGeometry>
        </mxCell>
        <mxCell id="9Q9myNXnQowxTMAH6O6V-64" value="data_sample columns" style="shape=partialRectangle;html=1;whiteSpace=wrap;connectable=0;strokeColor=inherit;overflow=hidden;fillColor=#666666;top=0;left=0;bottom=0;right=0;pointerEvents=1;fontSize=12;" vertex="1" parent="9Q9myNXnQowxTMAH6O6V-62">
          <mxGeometry x="160" width="153" height="41" as="geometry">
            <mxRectangle width="153" height="41" as="alternateBounds" />
          </mxGeometry>
        </mxCell>
        <mxCell id="9Q9myNXnQowxTMAH6O6V-65" value="" style="shape=tableRow;horizontal=0;startSize=0;swimlaneHead=0;swimlaneBody=0;strokeColor=inherit;top=0;left=0;bottom=0;right=0;collapsible=0;dropTarget=0;fillColor=none;points=[[0,0.5],[1,0.5]];portConstraint=eastwest;fontSize=16;" vertex="1" parent="9Q9myNXnQowxTMAH6O6V-61">
          <mxGeometry y="78" width="313" height="41" as="geometry" />
        </mxCell>
        <mxCell id="9Q9myNXnQowxTMAH6O6V-66" value="filter" style="shape=partialRectangle;html=1;whiteSpace=wrap;connectable=0;strokeColor=inherit;overflow=hidden;fillColor=#666666;top=0;left=0;bottom=0;right=0;pointerEvents=1;fontSize=12;" vertex="1" parent="9Q9myNXnQowxTMAH6O6V-65">
          <mxGeometry width="160" height="41" as="geometry">
            <mxRectangle width="160" height="41" as="alternateBounds" />
          </mxGeometry>
        </mxCell>
        <mxCell id="9Q9myNXnQowxTMAH6O6V-67" value="look for cdr3a/b column" style="shape=partialRectangle;html=1;whiteSpace=wrap;connectable=0;strokeColor=inherit;overflow=hidden;fillColor=#666666;top=0;left=0;bottom=0;right=0;pointerEvents=1;fontSize=12;" vertex="1" parent="9Q9myNXnQowxTMAH6O6V-65">
          <mxGeometry x="160" width="153" height="41" as="geometry">
            <mxRectangle width="153" height="41" as="alternateBounds" />
          </mxGeometry>
        </mxCell>
        <mxCell id="9Q9myNXnQowxTMAH6O6V-68" value="" style="shape=tableRow;horizontal=0;startSize=0;swimlaneHead=0;swimlaneBody=0;strokeColor=inherit;top=0;left=0;bottom=0;right=0;collapsible=0;dropTarget=0;fillColor=none;points=[[0,0.5],[1,0.5]];portConstraint=eastwest;fontSize=16;" vertex="1" parent="9Q9myNXnQowxTMAH6O6V-61">
          <mxGeometry y="119" width="313" height="41" as="geometry" />
        </mxCell>
        <mxCell id="9Q9myNXnQowxTMAH6O6V-69" value="out" style="shape=partialRectangle;html=1;whiteSpace=wrap;connectable=0;strokeColor=inherit;overflow=hidden;fillColor=#666666;top=0;left=0;bottom=0;right=0;pointerEvents=1;fontSize=12;" vertex="1" parent="9Q9myNXnQowxTMAH6O6V-68">
          <mxGeometry width="160" height="41" as="geometry">
            <mxRectangle width="160" height="41" as="alternateBounds" />
          </mxGeometry>
        </mxCell>
        <mxCell id="9Q9myNXnQowxTMAH6O6V-70" value="cdr3a/b columns" style="shape=partialRectangle;html=1;whiteSpace=wrap;connectable=0;strokeColor=inherit;overflow=hidden;fillColor=#666666;top=0;left=0;bottom=0;right=0;pointerEvents=1;fontSize=12;" vertex="1" parent="9Q9myNXnQowxTMAH6O6V-68">
          <mxGeometry x="160" width="153" height="41" as="geometry">
            <mxRectangle width="153" height="41" as="alternateBounds" />
          </mxGeometry>
        </mxCell>
        <mxCell id="9Q9myNXnQowxTMAH6O6V-71" value="get_trimmed_flanks()" style="shape=table;startSize=37;container=1;collapsible=0;childLayout=tableLayout;fontSize=16;fillColor=#666666;" vertex="1" parent="sZnHJTsr2i137iXFdhag-1">
          <mxGeometry x="457" y="420" width="313" height="159.50724637681208" as="geometry" />
        </mxCell>
        <mxCell id="9Q9myNXnQowxTMAH6O6V-72" value="" style="shape=tableRow;horizontal=0;startSize=0;swimlaneHead=0;swimlaneBody=0;strokeColor=inherit;top=0;left=0;bottom=0;right=0;collapsible=0;dropTarget=0;fillColor=none;points=[[0,0.5],[1,0.5]];portConstraint=eastwest;fontSize=16;" vertex="1" parent="9Q9myNXnQowxTMAH6O6V-71">
          <mxGeometry y="37" width="313" height="41" as="geometry" />
        </mxCell>
        <mxCell id="9Q9myNXnQowxTMAH6O6V-73" value="in" style="shape=partialRectangle;html=1;whiteSpace=wrap;connectable=0;strokeColor=inherit;overflow=hidden;fillColor=#666666;top=0;left=0;bottom=0;right=0;pointerEvents=1;fontSize=12;" vertex="1" parent="9Q9myNXnQowxTMAH6O6V-72">
          <mxGeometry width="160" height="41" as="geometry">
            <mxRectangle width="160" height="41" as="alternateBounds" />
          </mxGeometry>
        </mxCell>
        <mxCell id="9Q9myNXnQowxTMAH6O6V-74" value="cdr3 seq, flank size" style="shape=partialRectangle;html=1;whiteSpace=wrap;connectable=0;strokeColor=inherit;overflow=hidden;fillColor=#666666;top=0;left=0;bottom=0;right=0;pointerEvents=1;fontSize=12;" vertex="1" parent="9Q9myNXnQowxTMAH6O6V-72">
          <mxGeometry x="160" width="153" height="41" as="geometry">
            <mxRectangle width="153" height="41" as="alternateBounds" />
          </mxGeometry>
        </mxCell>
        <mxCell id="9Q9myNXnQowxTMAH6O6V-75" value="" style="shape=tableRow;horizontal=0;startSize=0;swimlaneHead=0;swimlaneBody=0;strokeColor=inherit;top=0;left=0;bottom=0;right=0;collapsible=0;dropTarget=0;fillColor=none;points=[[0,0.5],[1,0.5]];portConstraint=eastwest;fontSize=16;" vertex="1" parent="9Q9myNXnQowxTMAH6O6V-71">
          <mxGeometry y="78" width="313" height="41" as="geometry" />
        </mxCell>
        <mxCell id="9Q9myNXnQowxTMAH6O6V-76" value="filter" style="shape=partialRectangle;html=1;whiteSpace=wrap;connectable=0;strokeColor=inherit;overflow=hidden;fillColor=#666666;top=0;left=0;bottom=0;right=0;pointerEvents=1;fontSize=12;" vertex="1" parent="9Q9myNXnQowxTMAH6O6V-75">
          <mxGeometry width="160" height="41" as="geometry">
            <mxRectangle width="160" height="41" as="alternateBounds" />
          </mxGeometry>
        </mxCell>
        <mxCell id="9Q9myNXnQowxTMAH6O6V-77" value="trim cdr3 seqs" style="shape=partialRectangle;html=1;whiteSpace=wrap;connectable=0;strokeColor=inherit;overflow=hidden;fillColor=#666666;top=0;left=0;bottom=0;right=0;pointerEvents=1;fontSize=12;" vertex="1" parent="9Q9myNXnQowxTMAH6O6V-75">
          <mxGeometry x="160" width="153" height="41" as="geometry">
            <mxRectangle width="153" height="41" as="alternateBounds" />
          </mxGeometry>
        </mxCell>
        <mxCell id="9Q9myNXnQowxTMAH6O6V-78" value="" style="shape=tableRow;horizontal=0;startSize=0;swimlaneHead=0;swimlaneBody=0;strokeColor=inherit;top=0;left=0;bottom=0;right=0;collapsible=0;dropTarget=0;fillColor=none;points=[[0,0.5],[1,0.5]];portConstraint=eastwest;fontSize=16;" vertex="1" parent="9Q9myNXnQowxTMAH6O6V-71">
          <mxGeometry y="119" width="313" height="41" as="geometry" />
        </mxCell>
        <mxCell id="9Q9myNXnQowxTMAH6O6V-79" value="out" style="shape=partialRectangle;html=1;whiteSpace=wrap;connectable=0;strokeColor=inherit;overflow=hidden;fillColor=#666666;top=0;left=0;bottom=0;right=0;pointerEvents=1;fontSize=12;" vertex="1" parent="9Q9myNXnQowxTMAH6O6V-78">
          <mxGeometry width="160" height="41" as="geometry">
            <mxRectangle width="160" height="41" as="alternateBounds" />
          </mxGeometry>
        </mxCell>
        <mxCell id="9Q9myNXnQowxTMAH6O6V-80" value="trimmed cdr3 seqs" style="shape=partialRectangle;html=1;whiteSpace=wrap;connectable=0;strokeColor=inherit;overflow=hidden;fillColor=#666666;top=0;left=0;bottom=0;right=0;pointerEvents=1;fontSize=12;" vertex="1" parent="9Q9myNXnQowxTMAH6O6V-78">
          <mxGeometry x="160" width="153" height="41" as="geometry">
            <mxRectangle width="153" height="41" as="alternateBounds" />
          </mxGeometry>
        </mxCell>
        <mxCell id="9Q9myNXnQowxTMAH6O6V-81" value="get_edges()" style="shape=table;startSize=37;container=1;collapsible=0;childLayout=tableLayout;fontSize=16;fillColor=#666666;" vertex="1" parent="sZnHJTsr2i137iXFdhag-1">
          <mxGeometry x="808" y="420" width="313" height="159.50724637681208" as="geometry" />
        </mxCell>
        <mxCell id="9Q9myNXnQowxTMAH6O6V-82" value="" style="shape=tableRow;horizontal=0;startSize=0;swimlaneHead=0;swimlaneBody=0;strokeColor=inherit;top=0;left=0;bottom=0;right=0;collapsible=0;dropTarget=0;fillColor=none;points=[[0,0.5],[1,0.5]];portConstraint=eastwest;fontSize=16;" vertex="1" parent="9Q9myNXnQowxTMAH6O6V-81">
          <mxGeometry y="37" width="313" height="41" as="geometry" />
        </mxCell>
        <mxCell id="9Q9myNXnQowxTMAH6O6V-83" value="in" style="shape=partialRectangle;html=1;whiteSpace=wrap;connectable=0;strokeColor=inherit;overflow=hidden;fillColor=#666666;top=0;left=0;bottom=0;right=0;pointerEvents=1;fontSize=12;" vertex="1" parent="9Q9myNXnQowxTMAH6O6V-82">
          <mxGeometry width="160" height="41" as="geometry">
            <mxRectangle width="160" height="41" as="alternateBounds" />
          </mxGeometry>
        </mxCell>
        <mxCell id="9Q9myNXnQowxTMAH6O6V-84" value="local_pairs, global_pairs, cdr3 seq, chains" style="shape=partialRectangle;html=1;whiteSpace=wrap;connectable=0;strokeColor=inherit;overflow=hidden;fillColor=#666666;top=0;left=0;bottom=0;right=0;pointerEvents=1;fontSize=12;" vertex="1" parent="9Q9myNXnQowxTMAH6O6V-82">
          <mxGeometry x="160" width="153" height="41" as="geometry">
            <mxRectangle width="153" height="41" as="alternateBounds" />
          </mxGeometry>
        </mxCell>
        <mxCell id="9Q9myNXnQowxTMAH6O6V-85" value="" style="shape=tableRow;horizontal=0;startSize=0;swimlaneHead=0;swimlaneBody=0;strokeColor=inherit;top=0;left=0;bottom=0;right=0;collapsible=0;dropTarget=0;fillColor=none;points=[[0,0.5],[1,0.5]];portConstraint=eastwest;fontSize=16;" vertex="1" parent="9Q9myNXnQowxTMAH6O6V-81">
          <mxGeometry y="78" width="313" height="41" as="geometry" />
        </mxCell>
        <mxCell id="9Q9myNXnQowxTMAH6O6V-86" value="filter" style="shape=partialRectangle;html=1;whiteSpace=wrap;connectable=0;strokeColor=inherit;overflow=hidden;fillColor=#666666;top=0;left=0;bottom=0;right=0;pointerEvents=1;fontSize=12;" vertex="1" parent="9Q9myNXnQowxTMAH6O6V-85">
          <mxGeometry width="160" height="41" as="geometry">
            <mxRectangle width="160" height="41" as="alternateBounds" />
          </mxGeometry>
        </mxCell>
        <mxCell id="9Q9myNXnQowxTMAH6O6V-87" value="find local&amp;amp;global edges" style="shape=partialRectangle;html=1;whiteSpace=wrap;connectable=0;strokeColor=inherit;overflow=hidden;fillColor=#666666;top=0;left=0;bottom=0;right=0;pointerEvents=1;fontSize=12;" vertex="1" parent="9Q9myNXnQowxTMAH6O6V-85">
          <mxGeometry x="160" width="153" height="41" as="geometry">
            <mxRectangle width="153" height="41" as="alternateBounds" />
          </mxGeometry>
        </mxCell>
        <mxCell id="9Q9myNXnQowxTMAH6O6V-88" value="" style="shape=tableRow;horizontal=0;startSize=0;swimlaneHead=0;swimlaneBody=0;strokeColor=inherit;top=0;left=0;bottom=0;right=0;collapsible=0;dropTarget=0;fillColor=none;points=[[0,0.5],[1,0.5]];portConstraint=eastwest;fontSize=16;" vertex="1" parent="9Q9myNXnQowxTMAH6O6V-81">
          <mxGeometry y="119" width="313" height="41" as="geometry" />
        </mxCell>
        <mxCell id="9Q9myNXnQowxTMAH6O6V-89" value="out" style="shape=partialRectangle;html=1;whiteSpace=wrap;connectable=0;strokeColor=inherit;overflow=hidden;fillColor=#666666;top=0;left=0;bottom=0;right=0;pointerEvents=1;fontSize=12;" vertex="1" parent="9Q9myNXnQowxTMAH6O6V-88">
          <mxGeometry width="160" height="41" as="geometry">
            <mxRectangle width="160" height="41" as="alternateBounds" />
          </mxGeometry>
        </mxCell>
        <mxCell id="9Q9myNXnQowxTMAH6O6V-90" value="local &amp;amp; global edges" style="shape=partialRectangle;html=1;whiteSpace=wrap;connectable=0;strokeColor=inherit;overflow=hidden;fillColor=#666666;top=0;left=0;bottom=0;right=0;pointerEvents=1;fontSize=12;" vertex="1" parent="9Q9myNXnQowxTMAH6O6V-88">
          <mxGeometry x="160" width="153" height="41" as="geometry">
            <mxRectangle width="153" height="41" as="alternateBounds" />
          </mxGeometry>
        </mxCell>
      </root>
    </mxGraphModel>
  </diagram>
</mxfile>
